STARTFONT 2.1
FONT -Monotype-Times New Roman-Bold-R-Normal--50-360-100-100-P-281-iso8859-7
SIZE 36 100 100
FONTBOUNDINGBOX 58 55 -3 -11

STARTPROPERTIES 24
FOUNDRY "Monotype"
FAMILY_NAME "Times New Roman"
WEIGHT_NAME "Bold"
SLANT "R"
SETWIDTH_NAME "Normal"
ADD_STYLE_NAME ""
PIXEL_SIZE 50
POINT_SIZE 360
RESOLUTION_X 100
RESOLUTION_Y 100
SPACING "P"
AVERAGE_WIDTH 281
CHARSET_REGISTRY "iso8859"
CHARSET_ENCODING "7"
FACE_NAME "Times New Roman Bold ISO Latin Greek"
_DEC_DEVICE_FONTNAMES "PS=timesnewroman-b-latgreek"
COPYRIGHT "Copyright (c) 1993 Monotype Typography Ltd."
CAP_HEIGHT 40
X_HEIGHT 27
WEIGHT 10
QUAD_WIDTH 31
DEFAULT_CHAR 160
FONT_DESCENT 13
FONT_ASCENT 46
ENDPROPERTIES

CHARS 185

STARTCHAR space
ENCODING 32
SWIDTH 250 0
DWIDTH 13 0
BBX 0 0 0 0
BITMAP
ENDCHAR

STARTCHAR exclam
ENCODING 33
SWIDTH 271 0
DWIDTH 14 0
BBX 11 36 2 -1
BITMAP
0C00
3F00
7F80
7F80
7F80
7F80
7F80
7F80
3F80
3F00
3F00
3F00
3F00
1E00
1E00
1E00
1E00
0E00
0C00
0C00
0C00
0C00
0C00
0400
0000
0000
0000
0000
1E00
3F00
7F80
7F80
7F80
7F80
3F00
1E00
ENDCHAR

STARTCHAR quotedbl
ENCODING 34
SWIDTH 552 0
DWIDTH 28 0
BBX 23 16 2 18
BITMAP
0E00E0
1F01F0
3F83F8
3F83F8
3F83F8
3F83F8
3F83F8
1F01F0
1F01F0
1F01F0
1F01F0
0E00E0
0E00E0
0E00E0
0E00E0
040040
ENDCHAR

STARTCHAR numbersign
ENCODING 35
SWIDTH 667 0
DWIDTH 33 0
BBX 33 35 0 -4
BITMAP
001F007800
001F00F800
001E00F800
001E00F800
003E00F000
003E00F000
003E01F000
003C01F000
003C01F000
3FFFFFFE00
3FFFFFFE00
3FFFFFFE00
3FFFFFFE00
3FFFFFFE00
00F803C000
00F807C000
00F807C000
00F007C000
00F0078000
01F0078000
01F00F8000
3FFFFFFE00
3FFFFFFE00
3FFFFFFE00
3FFFFFFE00
3FFFFFFE00
03C01F0000
03C01F0000
07C01E0000
07C01E0000
07C03E0000
07803E0000
07803C0000
0F803C0000
0F803C0000
ENDCHAR

STARTCHAR dollar
ENCODING 36
SWIDTH 500 0
DWIDTH 25 0
BBX 26 38 -1 -3
BITMAP
000C0000
003F0000
01FFF000
038DFC00
0F0C7E00
1E0C1E00
1E0C1E00
3E0C0E00
3E0C0600
3F0C0600
3F8C0200
3FCC0000
3FEC0000
1FFC0000
1FFE0000
0FFF0000
07FFC000
03FFE000
00FFF800
007FFC00
001FFC00
000FFE00
000FFF00
000DFF00
000C7F00
000C3F00
300C3F00
300C1F00
300C1F00
380C1F00
3C0C1E00
3E0C3C00
3F0C7C00
3FCDF000
0FFFC000
001E0000
000C0000
000C0000
ENDCHAR

STARTCHAR percent
ENCODING 37
SWIDTH 875 0
DWIDTH 44 0
BBX 41 36 1 -1
BITMAP
03C000078000
0E3000070000
1C38000E0000
1C3C000E0000
3C3C001C0000
3C3C003C0000
7C3E00380000
7C3E00700000
7C3E00700000
7C3E00E00000
7C3E01E00000
7C3E01C00000
3C3C03800000
3C3C03800000
1C3807000000
1C380E000000
0E700E000000
03C01C01E000
00001C071800
0000380E1C00
0000700E1E00
0000701E1E00
0000E01E1E00
0000E01E1F00
0001C03E1F00
0003803E1F00
0003803E1F00
0007003E1F00
0007001E1F00
000E001E1E00
001C001E1E00
001C000E1E00
0038000E1C00
003800073800
00700001E000
00E000000000
ENDCHAR

STARTCHAR ampersand
ENCODING 38
SWIDTH 771 0
DWIDTH 39 0
BBX 37 36 0 -1
BITMAP
0000FC0000
0003FF0000
00071F8000
000E0F8000
001E0FC000
001E07C000
003E07C000
003E07C000
003F07C000
003F078000
003F070000
003F8E0000
003FBC0000
003FF00000
001FC00000
001FE03FF0
007FE00F80
01EFF00F00
03CFF80E00
0787F80E00
0F07FC0C00
1F03FC1C00
1F03FE1800
1F81FF3000
3F80FFB000
3F80FFE000
3FC07FE000
3FC03FE000
3FE03FF000
3FF01FFC00
1FF80FFE30
1FFC3FFFE0
0FFFFBFFC0
07FFE1FF80
03FF80FF00
007C003C00
ENDCHAR

STARTCHAR quoteright
ENCODING 39
SWIDTH 271 0
DWIDTH 14 0
BBX 13 16 0 19
BITMAP
0F00
1FC0
3FC0
3FE0
3FE0
3FE0
1FE0
0EE0
00E0
00E0
00C0
01C0
0180
0300
0E00
1800
ENDCHAR

STARTCHAR parenleft
ENCODING 40
SWIDTH 333 0
DWIDTH 17 0
BBX 17 45 0 -10
BITMAP
000200
000E00
001C00
003800
00F000
01E000
01E000
03C000
07C000
078000
0F8000
0F8000
1F8000
1F0000
1F0000
3F0000
3F0000
3F0000
3F0000
7F0000
7F0000
7F0000
7F0000
7F0000
7F0000
7F0000
3F0000
3F0000
3F0000
3F0000
3F0000
1F0000
1F8000
0F8000
0F8000
078000
07C000
03C000
01C000
01E000
00F000
007800
001C00
000E00
000200
ENDCHAR

STARTCHAR parenright
ENCODING 41
SWIDTH 333 0
DWIDTH 17 0
BBX 17 45 -1 -10
BITMAP
200000
380000
1C0000
0F0000
078000
03C000
03C000
01E000
01F000
00F000
00F800
00F800
00FC00
007C00
007E00
007E00
007E00
007E00
007E00
007F00
007F00
007F00
007F00
007F00
007F00
007F00
007E00
007E00
007E00
007E00
007E00
007C00
007C00
00F800
00F800
00F000
00F000
01E000
01E000
03C000
078000
070000
1E0000
380000
200000
ENDCHAR

STARTCHAR asterisk
ENCODING 42
SWIDTH 500 0
DWIDTH 25 0
BBX 23 19 1 16
BITMAP
003800
007C00
007C00
007C00
003C00
1C3870
3E38F8
3F11F8
3F93F8
1FFFF0
001800
002C00
00CE00
03C780
07C7C0
07C7C0
07C7C0
0783C0
030180
ENDCHAR

STARTCHAR plus
ENCODING 43
SWIDTH 667 0
DWIDTH 33 0
BBX 31 27 1 0
BITMAP
0007C000
0007C000
0007C000
0007C000
0007C000
0007C000
0007C000
0007C000
0007C000
0007C000
0007C000
3FFFFFF8
3FFFFFF8
3FFFFFF8
3FFFFFF8
3FFFFFF8
0007C000
0007C000
0007C000
0007C000
0007C000
0007C000
0007C000
0007C000
0007C000
0007C000
0007C000
ENDCHAR

STARTCHAR comma
ENCODING 44
SWIDTH 271 0
DWIDTH 14 0
BBX 13 16 0 -9
BITMAP
0F00
1FC0
3FC0
3FE0
3FE0
3FE0
1FE0
0EE0
00E0
00E0
00C0
01C0
0180
0300
0E00
1800
ENDCHAR

STARTCHAR minus
ENCODING 45
SWIDTH 667 0
DWIDTH 33 0
BBX 30 5 2 11
BITMAP
7FFFFFF0
7FFFFFF0
7FFFFFF0
7FFFFFF0
7FFFFFF0
ENDCHAR

STARTCHAR period
ENCODING 46
SWIDTH 271 0
DWIDTH 14 0
BBX 11 8 2 -1
BITMAP
1E00
3F00
7F80
7F80
7F80
7F80
3F00
1E00
ENDCHAR

STARTCHAR slash
ENCODING 47
SWIDTH 281 0
DWIDTH 14 0
BBX 17 35 -1 -1
BITMAP
007E00
007E00
007C00
007C00
00FC00
00FC00
00FC00
00F800
01F800
01F800
01F800
01F000
03F000
03F000
03F000
03E000
07E000
07E000
07E000
07C000
07C000
0FC000
0FC000
0F8000
0F8000
1F8000
1F8000
1F8000
1F0000
3F0000
3F0000
3F0000
3E0000
7E0000
7E0000
ENDCHAR

STARTCHAR zero
ENCODING 48
SWIDTH 500 0
DWIDTH 25 0
BBX 25 36 0 -1
BITMAP
003E0000
00FF8000
01E1E000
03C1F000
07C0F000
0F80F800
0F80FC00
1F80FC00
1F80FE00
3F80FE00
3F80FE00
3F80FE00
3F80FF00
3F80FF00
7F80FF00
7F80FF00
7F80FF00
7F80FF00
7F80FF00
7F80FF00
7F80FF00
7F80FF00
7F80FF00
3F80FE00
3F80FE00
3F80FE00
3F80FE00
1F80FC00
1F80FC00
0F80FC00
0F80F800
07C0F000
03C1F000
01E1E000
00FF8000
003E0000
ENDCHAR

STARTCHAR one
ENCODING 49
SWIDTH 500 0
DWIDTH 25 0
BBX 22 35 1 0
BITMAP
000600
001E00
007E00
01FE00
0FFE00
3FFE00
01FE00
00FE00
00FE00
00FE00
00FE00
00FE00
00FE00
00FE00
00FE00
00FE00
00FE00
00FE00
00FE00
00FE00
00FE00
00FE00
00FE00
00FE00
00FE00
00FE00
00FE00
00FE00
00FE00
00FE00
00FE00
00FE00
01FF00
01FF80
3FFFF0
ENDCHAR

STARTCHAR two
ENCODING 50
SWIDTH 500 0
DWIDTH 25 0
BBX 25 35 0 0
BITMAP
003E0000
01FFC000
03FFE000
07FFF000
0FFFF800
1FFFF800
1C0FFC00
3007FC00
2003FC00
2003FC00
0001FC00
0001FC00
0001FC00
0001F800
0001F800
0003F000
0003E000
0003E000
0007C000
00078000
000F0000
001E0000
001C0000
003C0000
00780000
00700100
00E00300
01C00600
03FFFE00
07FFFE00
0FFFFE00
1FFFFE00
1FFFFE00
3FFFFC00
7FFFFC00
ENDCHAR

STARTCHAR three
ENCODING 51
SWIDTH 500 0
DWIDTH 25 0
BBX 25 36 0 -1
BITMAP
001F0000
00FFC000
03FFF000
07FFF800
0FFFF800
0C0FFC00
1803FC00
1003FC00
2001FC00
0001FC00
0001F800
0001F000
0001F000
0003C000
0007C000
000FF000
003FF800
00FFFC00
003FFC00
000FFE00
0003FE00
0001FF00
0000FF00
00007F00
00007F00
00003F00
00003E00
00003E00
00003E00
18003C00
3E003800
7F007800
7F80E000
3FE1C000
1FFF0000
07FC0000
ENDCHAR

STARTCHAR four
ENCODING 52
SWIDTH 500 0
DWIDTH 25 0
BBX 27 35 -1 0
BITMAP
00001C00
00003C00
00007C00
0000FC00
0000FC00
0001FC00
0003FC00
0007FC00
0007FC00
000DFC00
0019FC00
0039FC00
0071FC00
0061FC00
00C1FC00
0181FC00
0381FC00
0301FC00
0601FC00
0C01FC00
1C01FC00
1801FC00
3FFFFF80
3FFFFF80
3FFFFF80
3FFFFF80
3FFFFF80
3FFFFF80
0001FC00
0001FC00
0001FC00
0001FC00
0001FC00
0001FC00
0001FC00
ENDCHAR

STARTCHAR five
ENCODING 53
SWIDTH 500 0
DWIDTH 25 0
BBX 26 35 -1 -1
BITMAP
00FFFF00
00FFFF00
01FFFE00
01FFFE00
01FFFE00
03FFFC00
03FFFC00
07000000
06000000
06000000
0FF00000
0FFF0000
0FFFC000
1FFFF000
1FFFF800
1FFFFC00
3FFFFC00
007FFE00
0007FE00
0001FF00
0000FF00
00003F00
00003F00
00001F00
00000F00
00000F00
00000E00
00000E00
1C000C00
3F001C00
3FC03800
3FF07000
1FFFC000
0FFF0000
01F80000
ENDCHAR

STARTCHAR six
ENCODING 54
SWIDTH 500 0
DWIDTH 25 0
BBX 26 36 0 -1
BITMAP
00001F00
0000FC00
0007E000
001F8000
003F0000
007E0000
00FC0000
01F80000
03F00000
07E00000
0FE00000
0FE00000
1FC00000
1FCFC000
3FFFF000
3FFFF800
3F83FC00
3F81FE00
7F80FE00
7F80FF00
7F80FF00
7F807F00
7F807F00
7F807F00
7F807F00
3F807F00
3F807F00
3F807F00
1FC07E00
1FC07E00
0FC07C00
0FC07C00
07E0F800
01F1F000
00FFC000
001E0000
ENDCHAR

STARTCHAR seven
ENCODING 55
SWIDTH 500 0
DWIDTH 25 0
BBX 27 35 -1 -1
BITMAP
0FFFFF80
0FFFFF80
0FFFFF00
1FFFFF00
1FFFFF00
1FFFFE00
1FFFFE00
1C001E00
30003C00
20003C00
20003C00
00007800
00007800
00007800
0000F000
0000F000
0000F000
0001E000
0001E000
0001E000
0003C000
0003C000
0003C000
00078000
00078000
00078000
000F0000
000F0000
000F0000
001E0000
001E0000
001E0000
003C0000
003C0000
003C0000
ENDCHAR

STARTCHAR eight
ENCODING 56
SWIDTH 500 0
DWIDTH 25 0
BBX 26 36 -1 -1
BITMAP
001F8000
01FFF000
03E0F800
0FC07C00
0F807E00
1F803F00
1F803F00
3F803F00
3FC03F00
3FC03F00
1FE03F00
1FF03E00
1FF87C00
0FFE7800
0FFFF000
07FFC000
03FFE000
00FFF000
007FF800
01FFFC00
03CFFE00
0F87FF00
1F83FF00
1F81FF80
3F00FF80
3F007F80
3F007F80
3F003F80
3F003F80
3F003F00
1F803F00
1F803E00
0FC07C00
07E0F800
01FFE000
003F0000
ENDCHAR

STARTCHAR nine
ENCODING 57
SWIDTH 500 0
DWIDTH 25 0
BBX 26 36 -1 -1
BITMAP
001F0000
00FFC000
03E3F000
07C1F800
0FC0FC00
0F80FC00
1F80FE00
1F807F00
3F807F00
3F807F00
3F807F00
3F807F80
3F807F80
3FC07F80
3FC07F80
3FC07F80
1FC07F80
1FE07F80
0FE07F80
0FF0FF00
07FFFF00
03FFFF00
007CFE00
0000FE00
0000FC00
0001FC00
0001F800
0003F000
0007E000
000FE000
001F8000
003F0000
007E0000
01F80000
0FC00000
3C000000
ENDCHAR

STARTCHAR colon
ENCODING 58
SWIDTH 271 0
DWIDTH 14 0
BBX 11 25 2 -1
BITMAP
1E00
3F00
7F80
7F80
7F80
7F80
3F00
1E00
0000
0000
0000
0000
0000
0000
0000
0000
0000
1E00
3F00
7F80
7F80
7F80
7F80
3F00
1E00
ENDCHAR

STARTCHAR semicolon
ENCODING 59
SWIDTH 271 0
DWIDTH 14 0
BBX 13 33 1 -9
BITMAP
0F00
1F80
3FC0
3FC0
3FC0
3FC0
1F80
0F00
0000
0000
0000
0000
0000
0000
0000
0000
0000
0F80
1FC0
3FC0
3FE0
3FE0
3FE0
1FE0
0EE0
00E0
00E0
00C0
01C0
0180
0300
0E00
1800
ENDCHAR

STARTCHAR less
ENCODING 60
SWIDTH 667 0
DWIDTH 33 0
BBX 30 27 2 0
BITMAP
00000010
000000F0
000003F0
00000FF0
00007FF0
0001FFF0
000FFF80
003FFE00
00FFF000
07FFC000
1FFE0000
7FF80000
7FC00000
7F000000
7FE00000
7FF80000
1FFF0000
07FFC000
00FFF800
003FFE00
0007FFC0
0001FFF0
00007FF0
00000FF0
000003F0
00000070
00000010
ENDCHAR

STARTCHAR equal
ENCODING 61
SWIDTH 667 0
DWIDTH 33 0
BBX 30 17 2 5
BITMAP
7FFFFFF0
7FFFFFF0
7FFFFFF0
7FFFFFF0
7FFFFFF0
00000000
00000000
00000000
00000000
00000000
00000000
00000000
7FFFFFF0
7FFFFFF0
7FFFFFF0
7FFFFFF0
7FFFFFF0
ENDCHAR

STARTCHAR greater
ENCODING 62
SWIDTH 667 0
DWIDTH 33 0
BBX 30 27 2 0
BITMAP
60000000
78000000
7E000000
7FC00000
7FF00000
3FFE0000
0FFF8000
01FFF000
007FFC00
000FFF00
0003FFE0
00007FF0
00001FF0
000007F0
00001FF0
0000FFF0
0003FFC0
001FFF00
007FF800
03FFE000
0FFF8000
7FFC0000
7FF00000
7FC00000
7E000000
78000000
40000000
ENDCHAR

STARTCHAR question
ENCODING 63
SWIDTH 385 0
DWIDTH 19 0
BBX 22 36 -1 -1
BITMAP
00FC00
07FF00
0E1FC0
1C0FE0
1E0FE0
3E0FF0
3F07F0
3F07F0
3F07F0
3F07F0
1E07F0
0007F0
000FE0
000FE0
000FC0
001F80
001E00
003C00
003800
003000
006000
006000
004000
004000
000000
000000
000000
000000
00F000
01F800
03FC00
03FC00
03FC00
03FC00
01F800
00F000
ENDCHAR

STARTCHAR at
ENCODING 64
SWIDTH 927 0
DWIDTH 46 0
BBX 48 46 0 -11
BITMAP
000003FC0000
00003FFFC000
0001F800F000
0007C0003C00
001F00000E00
003C00000300
007800000180
00E000000180
01C0000000C0
038000000060
078000000060
070001C00020
0E0007F7E030
0E001F37E030
1C003E17E010
1C007C1FC010
3800FC1FC010
3801F81FC010
3801F81F8010
3803F01F8010
3007F01F8010
7007E03F0030
7007E03F0030
700FE07F0020
700FC07F0020
700FC0FE0060
700FC0FE00C0
701FC17E00C0
301FC3FC0180
301FC6FC0300
381FFCFC0600
381FF8FC0C0C
180FF0FE380C
1C07E07FE008
0C03801F0010
0E0000000030
060000000020
030000000040
0380000000C0
01C000000180
00E000000700
007000000C00
001C00003800
00070000E000
0001F00F8000
00003FFC0000
ENDCHAR

STARTCHAR A
ENCODING 65
SWIDTH 719 0
DWIDTH 36 0
BBX 38 35 -1 0
BITMAP
0000100000
0000300000
0000380000
0000780000
0000780000
00007C0000
0000FC0000
0000FE0000
0001FE0000
0001FE0000
0001FF0000
0003FF0000
0003FF8000
00067F8000
00067FC000
000C3FC000
000C3FC000
000C1FE000
00181FE000
00181FF000
00300FF000
00300FF000
003007F800
007FFFF800
007FFFFC00
00C003FC00
00C003FC00
00C001FE00
018001FE00
018001FF00
030000FF00
030000FF80
078000FF80
0FC000FFC0
3FF80FFFF0
ENDCHAR

STARTCHAR B
ENCODING 66
SWIDTH 667 0
DWIDTH 33 0
BBX 34 34 -1 0
BITMAP
3FFFFF0000
07FFFFE000
03FC1FF000
03FC07F800
03FC03FC00
03FC03FE00
03FC01FE00
03FC01FE00
03FC01FE00
03FC01FE00
03FC01FE00
03FC03FC00
03FC03FC00
03FC07F800
03FC1FE000
03FFFF0000
03FFFFC000
03FC1FF000
03FC07FC00
03FC03FE00
03FC01FF00
03FC01FF00
03FC00FF80
03FC00FF80
03FC00FF80
03FC00FF80
03FC00FF80
03FC00FF00
03FC01FF00
03FC01FE00
03FC03FC00
03FE0FF800
07FFFFE000
7FFFFF0000
ENDCHAR

STARTCHAR C
ENCODING 67
SWIDTH 719 0
DWIDTH 36 0
BBX 34 36 1 -1
BITMAP
0003FF0080
000FFFE180
003FC0FF80
00FF003F80
01FE000F80
03FC000780
07F8000380
07F0000380
0FF0000180
1FE0000180
1FE0000080
3FE0000080
3FE0000000
3FC0000000
3FC0000000
7FC0000000
7FC0000000
7FC0000000
7FC0000000
7FC0000000
7FC0000000
7FC0000000
7FC0000000
3FC0000000
3FE0000000
3FE0000000
1FE0000000
1FF0000000
0FF0000100
07F8000300
03FC000700
01FC000E00
00FF001C00
007FC0F000
001FFFE000
0003FF0000
ENDCHAR

STARTCHAR D
ENCODING 68
SWIDTH 771 0
DWIDTH 39 0
BBX 38 34 0 0
BITMAP
7FFFFF0000
07FFFFE000
03FC07F800
03FC01FE00
03FC00FF00
03FC007F80
03FC003FC0
03FC003FC0
03FC001FE0
03FC001FE0
03FC001FF0
03FC000FF0
03FC000FF0
03FC000FF8
03FC000FF8
03FC000FF8
03FC000FF8
03FC000FF8
03FC000FF8
03FC000FF8
03FC000FF8
03FC000FF8
03FC000FF0
03FC000FF0
03FC001FF0
03FC001FE0
03FC001FE0
03FC003FC0
03FC003F80
03FC007F00
03FC00FE00
03FE03F800
07FFFFE000
7FFFFF0000
ENDCHAR

STARTCHAR E
ENCODING 69
SWIDTH 667 0
DWIDTH 33 0
BBX 34 34 0 0
BITMAP
7FFFFFFC00
07FFFFFC00
03FC00FC00
03FC003C00
03FC001C00
03FC000C00
03FC000C00
03FC000C00
03FC000400
03FC040400
03FC040000
03FC040000
03FC040000
03FC0C0000
03FC1C0000
03FC3C0000
03FFFC0000
03FFFC0000
03FC3C0000
03FC1C0000
03FC0C0000
03FC040000
03FC040000
03FC040000
03FC040100
03FC000100
03FC000300
03FC000300
03FC000700
03FC000F00
03FC001E00
03FE007E00
07FFFFFE00
7FFFFFFE00
ENDCHAR

STARTCHAR F
ENCODING 70
SWIDTH 604 0
DWIDTH 30 0
BBX 31 34 -1 0
BITMAP
7FFFFFFC
07FFFFFC
03FC00FC
03FC003C
03FC001C
03FC000C
03FC000C
03FC000C
03FC0004
03FC0200
03FC0200
03FC0200
03FC0200
03FC0600
03FC0E00
03FC3E00
03FFFE00
03FFFE00
03FC3E00
03FC0E00
03FC0600
03FC0600
03FC0200
03FC0200
03FC0200
03FC0000
03FC0000
03FC0000
03FC0000
03FC0000
03FC0000
03FE0000
07FE0000
7FFFE000
ENDCHAR

STARTCHAR G
ENCODING 71
SWIDTH 771 0
DWIDTH 39 0
BBX 39 36 1 -1
BITMAP
0001FF0080
000FFFE180
003F80FF80
007E003F80
01FC001F80
03F8000F80
03F8000780
07F0000380
0FF0000180
0FE0000180
1FE0000080
1FE0000080
3FE0000000
3FC0000000
3FC0000000
7FC0000000
7FC0000000
7FC0000000
7FC0000000
7FC0000000
7FC0000000
7FC003FFF8
7FC000FFC0
3FC0007F80
3FC0007F80
3FE0007F80
1FE0007F80
1FE0007F80
0FF0007F80
07F0007F80
03F8007F80
01FC007F80
00FE007F80
003F80FF00
000FFFF800
0000FF8000
ENDCHAR

STARTCHAR H
ENCODING 72
SWIDTH 823 0
DWIDTH 41 0
BBX 43 34 -1 0
BITMAP
7FFFE0FFFFC0
07FE000FFC00
03FE0007F800
03FC0007F800
03FC0007F800
03FC0007F800
03FC0007F800
03FC0007F800
03FC0007F800
03FC0007F800
03FC0007F800
03FC0007F800
03FC0007F800
03FC0007F800
03FC0007F800
03FFFFFFF800
03FFFFFFF800
03FC0007F800
03FC0007F800
03FC0007F800
03FC0007F800
03FC0007F800
03FC0007F800
03FC0007F800
03FC0007F800
03FC0007F800
03FC0007F800
03FC0007F800
03FC0007F800
03FC0007F800
03FC0007F800
03FE0007FC00
07FE000FFC00
3FFFE0FFFF80
ENDCHAR

STARTCHAR I
ENCODING 73
SWIDTH 385 0
DWIDTH 19 0
BBX 20 34 0 0
BITMAP
7FFFE0
07FE00
03FC00
03FC00
03FC00
03FC00
03FC00
03FC00
03FC00
03FC00
03FC00
03FC00
03FC00
03FC00
03FC00
03FC00
03FC00
03FC00
03FC00
03FC00
03FC00
03FC00
03FC00
03FC00
03FC00
03FC00
03FC00
03FC00
03FC00
03FC00
03FC00
03FE00
07FE00
7FFFE0
ENDCHAR

STARTCHAR J
ENCODING 74
SWIDTH 552 0
DWIDTH 28 0
BBX 29 35 -1 -1
BITMAP
003FFFF0
0003FF00
0001FE00
0001FE00
0001FE00
0001FE00
0001FE00
0001FE00
0001FE00
0001FE00
0001FE00
0001FE00
0001FE00
0001FE00
0001FE00
0001FE00
0001FE00
0001FE00
0001FE00
0001FE00
0001FE00
0001FE00
0001FE00
0001FE00
0E01FE00
1F81FE00
3F81FE00
3F81FE00
3F81FE00
3F01FC00
1F01FC00
1F03F800
0F07F000
03FFC000
007E0000
ENDCHAR

STARTCHAR K
ENCODING 75
SWIDTH 719 0
DWIDTH 36 0
BBX 37 34 -1 0
BITMAP
7FFFC7FFC0
07FE00FE00
03FC007C00
03FC007000
03FC00E000
03FC00C000
03FC018000
03FC038000
03FC070000
03FC0E0000
03FC0C0000
03FC180000
03FC300000
03FC780000
03FCFC0000
03FDFC0000
03FFFE0000
03FFFF0000
03FFFF0000
03FCFF8000
03FCFF8000
03FC7FC000
03FC3FE000
03FC3FE000
03FC1FF000
03FC0FF800
03FC0FF800
03FC07FC00
03FC03FE00
03FC03FE00
03FC01FF00
03FE01FF80
07FE01FFC0
7FFFCFFFF0
ENDCHAR

STARTCHAR L
ENCODING 76
SWIDTH 667 0
DWIDTH 33 0
BBX 34 34 -1 0
BITMAP
3FFFF80000
03FF000000
01FE000000
01FE000000
01FE000000
01FE000000
01FE000000
01FE000000
01FE000000
01FE000000
01FE000000
01FE000000
01FE000000
01FE000000
01FE000000
01FE000000
01FE000000
01FE000000
01FE000000
01FE000000
01FE000000
01FE000000
01FE000080
01FE000080
01FE000180
01FE000180
01FE000180
01FE000300
01FE000700
01FE000700
01FE001F00
01FF007F00
03FFFFFF00
3FFFFFFF00
ENDCHAR

STARTCHAR M
ENCODING 77
SWIDTH 990 0
DWIDTH 49 0
BBX 51 34 -1 0
BITMAP
3FFE00000FFFC0
07FF00000FFC00
03FF00001FFC00
03FF80001FF800
037F800037F800
037FC00037F800
033FC00067F800
033FC00067F800
031FE000C7F800
031FE000C7F800
031FF00187F800
030FF00187F800
030FF80107F800
0307F80307F800
0307FC0307F800
0303FC0607F800
0303FE0607F800
0301FE0C07F800
0301FE0C07F800
0300FF1807F800
0300FF1807F800
0300FF9007F800
03007FB007F800
03007FF007F800
03003FE007F800
03003FE007F800
03001FC007F800
03001FC007F800
03000F8007F800
03000F8007F800
03000F0007F800
0780070007F800
0FC006000FFC00
3FF80200FFFFC0
ENDCHAR

STARTCHAR N
ENCODING 78
SWIDTH 771 0
DWIDTH 39 0
BBX 40 34 0 0
BITMAP
7FF8001FFC
1FFC0003F0
07FE0001E0
07FF0000C0
03FF8000C0
03FFC000C0
03FFC000C0
037FE000C0
033FF000C0
031FF800C0
030FFC00C0
0307FE00C0
0307FF00C0
0303FF80C0
0301FF80C0
0300FFC0C0
03007FE0C0
03003FF0C0
03001FF8C0
03000FFCC0
030007FEC0
030007FFC0
030003FFC0
030001FFC0
030000FFC0
0300007FC0
0300003FC0
0300001FC0
0300000FC0
03000007C0
03000007C0
03000003C0
0FC00001C0
7FF80000C0
ENDCHAR

STARTCHAR O
ENCODING 79
SWIDTH 823 0
DWIDTH 41 0
BBX 39 36 1 -1
BITMAP
0001FF0000
000FFFE000
003F81F800
00FE00FE00
01FC007F00
03F8003F80
07F0001FC0
0FF0001FE0
0FE0000FF0
1FE0000FF0
1FE0000FF8
3FE0000FF8
3FC00007F8
3FC00007FC
7FC00007FC
7FC00007FC
7FC00007FC
7FC00007FC
7FC00007FC
7FC00007FC
7FC00007FC
7FC00007FC
3FC00007FC
3FE00007F8
3FE00007F8
1FE0000FF0
1FE0000FF0
0FF0000FE0
0FF0001FE0
07F0001FC0
03F8003F80
01FC007F00
00FE00FE00
003F01F800
000FFFE000
0001FF0000
ENDCHAR

STARTCHAR P
ENCODING 80
SWIDTH 667 0
DWIDTH 33 0
BBX 34 34 0 0
BITMAP
7FFFFF0000
07FFFFE000
03FC07F800
03FC03FC00
03FC01FE00
03FC01FF00
03FC00FF00
03FC00FF80
03FC00FF80
03FC00FF80
03FC00FF80
03FC00FF80
03FC00FF00
03FC01FF00
03FC01FE00
03FC03FC00
03FC0FF800
03FFFFE000
03FFFE0000
03FC000000
03FC000000
03FC000000
03FC000000
03FC000000
03FC000000
03FC000000
03FC000000
03FC000000
03FC000000
03FC000000
03FC000000
03FE000000
07FE000000
7FFFE00000
ENDCHAR

STARTCHAR Q
ENCODING 81
SWIDTH 823 0
DWIDTH 41 0
BBX 39 45 1 -10
BITMAP
0001FF0000
000FFFE000
003F01F800
00FE00FE00
01FC007F00
03F8003F80
07F0001FC0
0FF0001FE0
0FE0000FE0
1FE0000FF0
1FE0000FF0
3FE0000FF8
3FC00007F8
3FC00007F8
7FC00007FC
7FC00007FC
7FC00007FC
7FC00007FC
7FC00007FC
7FC00007FC
7FC00007FC
7FC00007FC
3FC00007F8
3FC00007F8
3FE00007F8
3FE0000FF8
1FE0000FF0
1FE0000FF0
0FF0001FE0
07F0001FC0
07F8003FC0
03FC003F80
00FE007E00
007F01FC00
001FFFF000
0003FF8000
0000FF0000
0000FF8000
00007F8000
00007FC000
00003FE000
00001FF000
000007FE00
000003FFF0
0000007FE0
ENDCHAR

STARTCHAR R
ENCODING 82
SWIDTH 719 0
DWIDTH 36 0
BBX 37 34 0 0
BITMAP
7FFFFE0000
07FFFFC000
03FC1FF000
03FC07F800
03FC03F800
03FC03FC00
03FC01FE00
03FC01FE00
03FC01FE00
03FC01FE00
03FC01FE00
03FC01FE00
03FC01FE00
03FC03FC00
03FC03FC00
03FC07F800
03FC0FF000
03FFFFC000
03FFFF0000
03FCFF0000
03FCFF8000
03FC7FC000
03FC3FC000
03FC3FE000
03FC1FF000
03FC0FF000
03FC0FF800
03FC07F800
03FC07FC00
03FC03FE00
03FC01FE00
03FC01FF00
07FE00FF80
7FFFE07FE0
ENDCHAR

STARTCHAR S
ENCODING 83
SWIDTH 604 0
DWIDTH 30 0
BBX 30 36 0 -1
BITMAP
003FC020
01FFF860
03E03FE0
07800FE0
0F0003E0
1E0001E0
1E0000E0
3E0000E0
3E000060
3F000060
3F800020
3FE00000
3FF80000
1FFF0000
1FFFE000
0FFFF800
07FFFE00
03FFFF80
01FFFFC0
003FFFE0
000FFFF0
0001FFF0
00003FF8
20000FF8
200007F8
200003F8
300001F8
300001F8
380001F0
3C0001F0
3C0001E0
3F0003E0
3F8007C0
3FE01F80
307FFE00
200FE000
ENDCHAR

STARTCHAR T
ENCODING 84
SWIDTH 667 0
DWIDTH 33 0
BBX 34 34 0 0
BITMAP
3FFFFFFF00
3FFFFFFF00
3E07F80F00
3807F80700
3007F80300
3007F80100
2007F80100
2007F80100
2007F80100
0007F80000
0007F80000
0007F80000
0007F80000
0007F80000
0007F80000
0007F80000
0007F80000
0007F80000
0007F80000
0007F80000
0007F80000
0007F80000
0007F80000
0007F80000
0007F80000
0007F80000
0007F80000
0007F80000
0007F80000
0007F80000
0007F80000
0007FC0000
000FFC0000
00FFFFC000
ENDCHAR

STARTCHAR U
ENCODING 85
SWIDTH 771 0
DWIDTH 39 0
BBX 40 35 0 -1
BITMAP
7FFFC00FFC
07FE0001E0
03FC0000E0
03FC0000C0
03FC0000C0
03FC0000C0
03FC0000C0
03FC0000C0
03FC0000C0
03FC0000C0
03FC0000C0
03FC0000C0
03FC0000C0
03FC0000C0
03FC0000C0
03FC0000C0
03FC0000C0
03FC0000C0
03FC0000C0
03FC0000C0
03FC0000C0
03FC0000C0
03FC0000C0
03FC0000C0
03FC0000C0
03FC0000C0
03FC000080
01FC000180
01FE000180
00FE000300
00FF000700
007F800E00
003FE07C00
000FFFF000
0001FF8000
ENDCHAR

STARTCHAR V
ENCODING 86
SWIDTH 719 0
DWIDTH 36 0
BBX 38 35 -1 -1
BITMAP
3FFF803FF0
0FFC000FC0
07FC000780
03FC000300
03FC000300
03FE000600
01FE000600
01FE000C00
00FF000C00
00FF000C00
00FF801800
007F801800
007F803000
003FC03000
003FC03000
003FE06000
001FE06000
001FE0C000
000FF0C000
000FF0C000
000FF98000
0007F98000
0007FB0000
0003FF0000
0003FE0000
0003FE0000
0001FE0000
0001FC0000
0000FC0000
0000F80000
0000F80000
0000780000
0000700000
0000300000
0000200000
ENDCHAR

STARTCHAR W
ENCODING 87
SWIDTH 990 0
DWIDTH 49 0
BBX 52 35 -1 -1
BITMAP
3FFF1FFFE03FC0
1FF807FF000780
0FF803FE000700
0FF801FE000700
07F800FF000600
07FC00FF000600
03FC00FF800400
03FC007F800C00
03FE007F800C00
01FE007FC01800
01FE003FC01800
01FF007FC01800
00FF007FE03000
00FF805FE03000
007F80DFF02000
007F80CFF06000
007FC18FF06000
003FC18FF8C000
003FC307F8C000
001FE307F8C000
001FE303FD8000
001FF603FD8000
000FF603FF0000
000FFC01FF0000
000FFC01FF0000
0007F801FE0000
0007F800FE0000
0003F800FE0000
0003F0007C0000
0003F0007C0000
0001E000780000
0001E000380000
0000E000380000
0000C000300000
0000C000100000
ENDCHAR

STARTCHAR X
ENCODING 88
SWIDTH 719 0
DWIDTH 36 0
BBX 38 34 -1 0
BITMAP
3FFFC1FFE0
0FFE003F00
07FE003E00
03FE001C00
03FF003800
01FF003000
00FF807000
00FFC06000
007FC0C000
003FE18000
003FF38000
001FF30000
000FFE0000
000FFC0000
0007FC0000
0003FE0000
0003FE0000
0001FF0000
0000FF8000
0001FF8000
0001FFC000
00037FE000
00063FE000
000E1FF000
000C1FF800
00180FF800
003007FC00
007007FC00
006003FE00
00C003FF00
01C001FF80
03C001FF80
0FE001FFE0
3FFC0FFFF0
ENDCHAR

STARTCHAR Y
ENCODING 89
SWIDTH 719 0
DWIDTH 36 0
BBX 37 34 0 0
BITMAP
7FFF807FF0
1FFC000FC0
07FC000780
07FC000700
03FE000600
03FE000600
01FF000C00
01FF000C00
00FF801800
007F801800
007FC03000
003FC06000
003FE06000
001FE0C000
001FF0C000
000FF18000
000FF98000
0007FF0000
0007FF0000
0003FE0000
0001FE0000
0001FE0000
0001FE0000
0001FE0000
0001FE0000
0001FE0000
0001FE0000
0001FE0000
0001FE0000
0001FE0000
0001FE0000
0001FE0000
0003FF0000
003FFFF000
ENDCHAR

STARTCHAR Z
ENCODING 90
SWIDTH 719 0
DWIDTH 36 0
BBX 36 34 0 0
BITMAP
07FFFFFF00
07FFFFFF00
07E003FE00
078007FC00
070007FC00
06000FF800
04001FF000
04001FF000
04003FE000
00007FC000
00007FC000
0000FF8000
0000FF0000
0001FF0000
0003FE0000
0003FE0000
0007FC0000
000FF80000
000FF80000
001FF00000
003FE00000
003FE00000
007FC00040
00FF800040
00FF800040
01FF0000C0
03FE0000C0
03FE0001C0
07FC0003C0
07FC0007C0
0FF8000F80
1FF0003F80
1FFFFFFF80
3FFFFFFF80
ENDCHAR

STARTCHAR bracketleft
ENCODING 91
SWIDTH 271 0
DWIDTH 14 0
BBX 13 43 1 -8
BITMAP
3FF0
3F80
3F00
3F00
3F00
3F00
3F00
3F00
3F00
3F00
3F00
3F00
3F00
3F00
3F00
3F00
3F00
3F00
3F00
3F00
3F00
3F00
3F00
3F00
3F00
3F00
3F00
3F00
3F00
3F00
3F00
3F00
3F00
3F00
3F00
3F00
3F00
3F00
3F00
3F00
3F00
3F00
3FF0
ENDCHAR

STARTCHAR backslash
ENCODING 92
SWIDTH 281 0
DWIDTH 14 0
BBX 17 35 -1 -1
BITMAP
7E0000
7E0000
3E0000
3F0000
3F0000
3F0000
1F0000
1F0000
1F8000
1F8000
0F8000
0F8000
0FC000
0FC000
0FC000
07C000
07E000
07E000
07E000
03E000
03F000
03F000
03F000
01F000
01F800
01F800
01F800
00F800
00FC00
00FC00
00FC00
007C00
007C00
007E00
007E00
ENDCHAR

STARTCHAR bracketright
ENCODING 93
SWIDTH 271 0
DWIDTH 14 0
BBX 13 43 -1 -8
BITMAP
7FE0
0FE0
07E0
07E0
07E0
07E0
07E0
07E0
07E0
07E0
07E0
07E0
07E0
07E0
07E0
07E0
07E0
07E0
07E0
07E0
07E0
07E0
07E0
07E0
07E0
07E0
07E0
07E0
07E0
07E0
07E0
07E0
07E0
07E0
07E0
07E0
07E0
07E0
07E0
07E0
07E0
07E0
7FE0
ENDCHAR

STARTCHAR asciicircum
ENCODING 94
SWIDTH 583 0
DWIDTH 29 0
BBX 25 18 2 16
BITMAP
000C0000
001C0000
003E0000
003E0000
007F0000
007F0000
00F78000
00F7C000
01E3C000
03E3E000
03C1E000
0780F000
0780F000
0F007800
0F007C00
1E003C00
3E003E00
3C001E00
ENDCHAR

STARTCHAR underscore
ENCODING 95
SWIDTH 500 0
DWIDTH 25 0
BBX 29 3 -2 -6
BITMAP
3FFFFFE0
3FFFFFE0
3FFFFFE0
ENDCHAR

STARTCHAR quoteleft
ENCODING 96
SWIDTH 271 0
DWIDTH 14 0
BBX 13 16 0 19
BITMAP
00C0
0380
0600
0E00
0C00
1800
1800
3800
3BC0
3FC0
3FE0
3FE0
3FE0
1FE0
1FC0
0780
ENDCHAR

STARTCHAR a
ENCODING 97
SWIDTH 500 0
DWIDTH 25 0
BBX 25 25 1 -1
BITMAP
00FE0000
07FFC000
0F0FE000
1E07E000
3E07F000
7E07F000
7F07F000
7F07F000
3F07F000
1E07F000
001FF000
007FF000
01E7F000
07C7F000
0F87F000
1F07F000
3F07F000
3F07F000
7F07F000
7F87F000
7FFFF000
7FF7FE00
3FE3FC00
1FC3F800
04004000
ENDCHAR

STARTCHAR b
ENCODING 98
SWIDTH 500 0
DWIDTH 25 0
BBX 27 35 -1 -1
BITMAP
3FE00000
1FE00000
0FE00000
0FE00000
0FE00000
0FE00000
0FE00000
0FE00000
0FE00000
0FE00000
0FE3E000
0FE7F800
0FFFFC00
0FF8FE00
0FF07F00
0FE07F00
0FE07F00
0FE03F80
0FE03F80
0FE03F80
0FE03F80
0FE03F80
0FE03F80
0FE03F80
0FE03F80
0FE03F80
0FE03F00
0FE03F00
0FE07F00
0FE07E00
0FF07C00
0FF0FC00
0F78F800
0E3FE000
080F8000
ENDCHAR

STARTCHAR c
ENCODING 99
SWIDTH 438 0
DWIDTH 22 0
BBX 23 25 0 -1
BITMAP
003E00
01FFC0
03C7E0
0783F0
0F03F0
1F03F8
1F03F8
3F01F0
3F00F0
3F0000
3F0000
7F0000
7F0000
7F0000
7F8000
3F8000
3F8000
3FC000
3FC008
1FE018
0FF830
0FFFF0
07FFE0
01FF80
007E00
ENDCHAR

STARTCHAR d
ENCODING 100
SWIDTH 500 0
DWIDTH 25 0
BBX 26 35 -1 -1
BITMAP
000FFC00
0003FC00
0001FC00
0001FC00
0001FC00
0001FC00
0001FC00
0001FC00
0001FC00
0001FC00
00F9FC00
03FDFC00
07E7FC00
0FC3FC00
0FC1FC00
1F81FC00
1F81FC00
1F81FC00
3F81FC00
3F81FC00
3F81FC00
3F81FC00
3F81FC00
3F81FC00
3F81FC00
3F81FC00
3F81FC00
1F81FC00
1FC1FC00
1FC1FC00
0FC3FC00
0FE7FE00
07FFFF80
03FDFC00
00F1C000
ENDCHAR

STARTCHAR e
ENCODING 101
SWIDTH 438 0
DWIDTH 22 0
BBX 23 25 0 -1
BITMAP
003C00
01FF00
03C780
0783C0
0F83E0
1F01F0
1F01F0
3F01F0
3F01F8
3F01F8
3FFFF8
7FFFF8
7F0000
7F0000
7F0000
7F8000
3F8000
3F8000
3FC018
1FE030
1FF060
0FFFE0
07FFC0
03FF00
00FC00
ENDCHAR

STARTCHAR f
ENCODING 102
SWIDTH 333 0
DWIDTH 17 0
BBX 21 35 -1 0
BITMAP
003FC0
007FE0
01F3F0
01F3F0
03F3F0
03F3E0
07F000
07F000
07F000
07F000
07F000
07F000
3FFE00
3FFE00
3FFE00
07F000
07F000
07F000
07F000
07F000
07F000
07F000
07F000
07F000
07F000
07F000
07F000
07F000
07F000
07F000
07F000
07F000
07F000
0FF000
3FFE00
ENDCHAR

STARTCHAR g
ENCODING 103
SWIDTH 500 0
DWIDTH 25 0
BBX 25 35 1 -11
BITMAP
00FC0000
03FFFE00
0F87FE00
1F83FE00
3F03E000
3F03F000
7F03F000
7F03F800
7F03F800
7F03F800
3F03F800
3F03F000
1F03F000
0F83E000
0787C000
01FF0000
01FC0000
06000000
0E000000
1E000000
3E000000
3FFFE000
3FFFF800
3FFFFC00
1FFFFE00
1FFFFE00
07FFFE00
3C007E00
38001E00
78001E00
78001C00
7C003800
3E007000
0FFFE000
00FE0000
ENDCHAR

STARTCHAR h
ENCODING 104
SWIDTH 500 0
DWIDTH 25 0
BBX 26 34 0 0
BITMAP
7FC00000
3FC00000
1FC00000
1FC00000
1FC00000
1FC00000
1FC00000
1FC00000
1FC00000
1FC00000
1FC3E000
1FCFF800
1FDFFC00
1FF9FC00
1FE0FE00
1FC0FE00
1FC0FE00
1FC0FE00
1FC0FE00
1FC0FE00
1FC0FE00
1FC0FE00
1FC0FE00
1FC0FE00
1FC0FE00
1FC0FE00
1FC0FE00
1FC0FE00
1FC0FE00
1FC0FE00
1FC0FE00
1FC0FE00
3FE1FF00
7FF3FF80
ENDCHAR

STARTCHAR i
ENCODING 105
SWIDTH 271 0
DWIDTH 14 0
BBX 15 35 -1 0
BITMAP
03C0
07E0
0FF0
0FF0
0FF0
0FF0
07E0
03C0
0000
0000
0000
0000
7FE0
1FE0
0FE0
0FE0
0FE0
0FE0
0FE0
0FE0
0FE0
0FE0
0FE0
0FE0
0FE0
0FE0
0FE0
0FE0
0FE0
0FE0
0FE0
0FE0
0FE0
1FF0
7FF8
ENDCHAR

STARTCHAR j
ENCODING 106
SWIDTH 271 0
DWIDTH 14 0
BBX 14 46 -2 -11
BITMAP
01E0
03F0
07F8
07F8
07F8
07F8
03F0
01E0
0000
0000
0000
0000
1FF8
07F8
03F8
03F8
03F8
03F8
03F8
03F8
03F8
03F8
03F8
03F8
03F8
03F8
03F8
03F8
03F8
03F8
03F8
03F8
03F8
03F8
03F8
03F8
01F8
01F8
01F8
00F8
00F8
3C70
3C70
3E60
3FC0
0F00
ENDCHAR

STARTCHAR k
ENCODING 107
SWIDTH 552 0
DWIDTH 28 0
BBX 29 34 0 0
BITMAP
7FE00000
1FE00000
0FE00000
0FE00000
0FE00000
0FE00000
0FE00000
0FE00000
0FE00000
0FE00000
0FE00000
0FE1FF80
0FE07E00
0FE03800
0FE03000
0FE06000
0FE0C000
0FE18000
0FE38000
0FE38000
0FE78000
0FEFC000
0FFFE000
0FFFE000
0FE7F000
0FE7F800
0FE3F800
0FE3FC00
0FE1FE00
0FE0FE00
0FE0FF00
0FE07F80
1FF07FC0
7FFCFFE0
ENDCHAR

STARTCHAR l
ENCODING 108
SWIDTH 271 0
DWIDTH 14 0
BBX 15 34 0 0
BITMAP
7FE0
1FE0
0FE0
0FE0
0FE0
0FE0
0FE0
0FE0
0FE0
0FE0
0FE0
0FE0
0FE0
0FE0
0FE0
0FE0
0FE0
0FE0
0FE0
0FE0
0FE0
0FE0
0FE0
0FE0
0FE0
0FE0
0FE0
0FE0
0FE0
0FE0
0FE0
0FE0
1FF0
7FF8
ENDCHAR

STARTCHAR m
ENCODING 109
SWIDTH 771 0
DWIDTH 39 0
BBX 41 24 -1 0
BITMAP
0001F80FC000
3FE7FC3FE000
1FEFFE7FF000
0FFCFEE7F000
0FF07F83F800
0FE07F83F800
0FE07F03F800
0FE07F03F800
0FE07F03F800
0FE07F03F800
0FE07F03F800
0FE07F03F800
0FE07F03F800
0FE07F03F800
0FE07F03F800
0FE07F03F800
0FE07F03F800
0FE07F03F800
0FE07F03F800
0FE07F03F800
0FE07F03F800
0FE07F03F800
1FF0FF87FC00
3FF9FFCFFE00
ENDCHAR

STARTCHAR n
ENCODING 110
SWIDTH 500 0
DWIDTH 25 0
BBX 26 24 0 0
BITMAP
0003F000
7FCFF800
3FDFFC00
1FF1FC00
1FE0FE00
1FC0FE00
1FC0FE00
1FC0FE00
1FC0FE00
1FC0FE00
1FC0FE00
1FC0FE00
1FC0FE00
1FC0FE00
1FC0FE00
1FC0FE00
1FC0FE00
1FC0FE00
1FC0FE00
1FC0FE00
1FC0FE00
1FC0FE00
3FE1FF00
7FF3FF80
ENDCHAR

STARTCHAR o
ENCODING 111
SWIDTH 500 0
DWIDTH 25 0
BBX 26 25 -1 -1
BITMAP
003F0000
00FFC000
03E1F000
07C0F800
0FC0FC00
0FC0FE00
1F807E00
1F807E00
3F807F00
3F807F00
3F807F00
3F807F00
3F807F00
3F807F00
3F807F00
3F807F00
3F807F00
1F807E00
1FC07E00
0FC0FC00
0FC0FC00
07C0F800
03E1F000
00FFC000
003F0000
ENDCHAR

STARTCHAR p
ENCODING 112
SWIDTH 500 0
DWIDTH 25 0
BBX 26 35 0 -11
BITMAP
0003C000
7FEFF000
1FEFF800
0FF9FC00
0FF0FC00
0FE0FE00
0FE07E00
0FE07F00
0FE07F00
0FE07F00
0FE07F00
0FE07F00
0FE07F00
0FE07F00
0FE07F00
0FE07F00
0FE07F00
0FE07F00
0FE07E00
0FE07E00
0FE0FC00
0FF0FC00
0FF9F800
0FEFF000
0FE7C000
0FE00000
0FE00000
0FE00000
0FE00000
0FE00000
0FE00000
0FE00000
0FE00000
1FF00000
7FFC0000
ENDCHAR

STARTCHAR q
ENCODING 113
SWIDTH 500 0
DWIDTH 25 0
BBX 27 35 -1 -11
BITMAP
003E0200
00FF8E00
01E1DE00
07E1FE00
07C0FE00
0FC0FE00
1FC0FE00
1FC0FE00
1F80FE00
3F80FE00
3F80FE00
3F80FE00
3F80FE00
3F80FE00
3F80FE00
3F80FE00
3F80FE00
3FC0FE00
1FC0FE00
1FC0FE00
0FC0FE00
0FE3FE00
07FFFE00
03FEFE00
00F8FE00
0000FE00
0000FE00
0000FE00
0000FE00
0000FE00
0000FE00
0000FE00
0000FE00
0001FF00
0007FFC0
ENDCHAR

STARTCHAR r
ENCODING 114
SWIDTH 385 0
DWIDTH 19 0
BBX 21 24 -1 0
BITMAP
0001C0
3FE7E0
1FE7E0
0FEFE0
0FFFE0
0FF7E0
0FF1C0
0FE000
0FE000
0FE000
0FE000
0FE000
0FE000
0FE000
0FE000
0FE000
0FE000
0FE000
0FE000
0FE000
0FE000
0FE000
1FF000
3FFC00
ENDCHAR

STARTCHAR s
ENCODING 115
SWIDTH 385 0
DWIDTH 19 0
BBX 21 25 0 -1
BITMAP
03E080
0FFD80
1E0F80
3C0380
3C01C0
7C00C0
7E00C0
7F8040
7FE000
3FF800
3FFE00
1FFF00
1FFF80
07FFC0
01FFE0
007FE0
401FE0
200FE0
2007E0
3003E0
3803C0
3C07C0
3E0780
27FF00
20FC00
ENDCHAR

STARTCHAR t
ENCODING 116
SWIDTH 333 0
DWIDTH 17 0
BBX 18 32 0 -1
BITMAP
002000
006000
00E000
00E000
01E000
03E000
07E000
0FE000
1FFF00
3FFF00
7FFF00
0FE000
0FE000
0FE000
0FE000
0FE000
0FE000
0FE000
0FE000
0FE000
0FE000
0FE000
0FE000
0FE000
0FE000
0FE000
0FE000
0FE100
07F300
07FE00
03FC00
00F000
ENDCHAR

STARTCHAR u
ENCODING 117
SWIDTH 500 0
DWIDTH 25 0
BBX 26 24 0 -1
BITMAP
7FC7FE00
3FC1FE00
1FC0FE00
1FC0FE00
1FC0FE00
1FC0FE00
1FC0FE00
1FC0FE00
1FC0FE00
1FC0FE00
1FC0FE00
1FC0FE00
1FC0FE00
1FC0FE00
1FC0FE00
1FC0FE00
1FC0FE00
1FC0FE00
1FC0FE00
1FC1FE00
0FE7FE00
0FFEFE00
07FCFF80
01F00000
ENDCHAR

STARTCHAR v
ENCODING 118
SWIDTH 438 0
DWIDTH 22 0
BBX 24 24 -1 -1
BITMAP
7FF8FC
1FE078
1FE030
0FE030
0FE020
07F060
07F060
07F040
03F8C0
03F880
03F880
01FD80
01FD00
00FF00
00FF00
00FE00
007E00
007E00
007C00
003C00
003C00
003800
001800
001800
ENDCHAR

STARTCHAR w
ENCODING 119
SWIDTH 667 0
DWIDTH 33 0
BBX 35 24 -1 -1
BITMAP
3FF3FF8F80
1FE1FF0780
1FC0FE0700
0FE0FE0200
0FE07F0600
0FE07F0600
07F0FF0400
07F0BF8C00
07F0BF8C00
03F9BF8800
03F91FD800
03FB1FD800
01FF1FD000
01FE0FF000
01FE0FF000
00FE0FE000
00FC07E000
00FC07E000
007C07C000
007803C000
007803C000
0038038000
0030018000
0010018000
ENDCHAR

STARTCHAR x
ENCODING 120
SWIDTH 552 0
DWIDTH 28 0
BBX 29 23 0 0
BITMAP
7FFC3FC0
1FF00F00
0FF00E00
0FF81C00
07F81800
03FC3000
03FE6000
01FEC000
00FF8000
007F8000
007FC000
003FC000
001FE000
001FF000
003FF000
0067F800
0063FC00
00C3FE00
0181FE00
0300FF00
0700FF80
0F00FFC0
7FC3FFE0
ENDCHAR

STARTCHAR y
ENCODING 121
SWIDTH 500 0
DWIDTH 25 0
BBX 26 34 -1 -11
BITMAP
7FFC7F80
1FF01E00
1FE00C00
0FF00C00
07F00800
07F01800
07F81800
03F81000
03F83000
01FC3000
01FC2000
01FE6000
00FE6000
00FF4000
007FC000
007FC000
007F8000
003F8000
003F0000
001F0000
001F0000
000E0000
000E0000
000E0000
00040000
00040000
000C0000
1E080000
1F180000
3F100000
3F300000
3FE00000
1FC00000
0F800000
ENDCHAR

STARTCHAR z
ENCODING 122
SWIDTH 438 0
DWIDTH 22 0
BBX 24 23 -1 0
BITMAP
1FFFFC
1FFFFC
1E07F8
1C07F8
180FF0
180FE0
101FE0
001FC0
003FC0
007F80
007F00
00FF00
00FE00
01FE00
03FC00
03FC04
07F804
07F00C
0FF018
0FE038
1FE078
3FFFF8
3FFFF8
ENDCHAR

STARTCHAR braceleft
ENCODING 123
SWIDTH 396 0
DWIDTH 20 0
BBX 16 44 3 -9
BITMAP
001E
007C
00F0
01E0
03C0
07C0
07C0
07C0
07E0
07E0
07E0
07E0
03E0
03E0
03E0
03E0
03E0
03C0
0780
0700
0E00
7800
7800
0E00
0700
0780
03C0
03E0
03E0
03E0
03E0
03E0
07E0
07E0
07C0
07C0
07C0
07C0
07C0
03C0
01E0
00F0
007C
000E
ENDCHAR

STARTCHAR bar
ENCODING 124
SWIDTH 219 0
DWIDTH 11 0
BBX 9 42 1 -8
BITMAP
3E00
3E00
3E00
3E00
3E00
3E00
3E00
3E00
3E00
3E00
3E00
3E00
3E00
3E00
3E00
3E00
3E00
3E00
3E00
3E00
3E00
3E00
3E00
3E00
3E00
3E00
3E00
3E00
3E00
3E00
3E00
3E00
3E00
3E00
3E00
3E00
3E00
3E00
3E00
3E00
3E00
3E00
ENDCHAR

STARTCHAR braceright
ENCODING 125
SWIDTH 396 0
DWIDTH 20 0
BBX 16 44 1 -9
BITMAP
7800
1E00
0F00
0780
03C0
03E0
03E0
03E0
03E0
03E0
07E0
07E0
07C0
07C0
07C0
07C0
07C0
03C0
01E0
00E0
0070
001E
001E
0070
00E0
01E0
03C0
07C0
07C0
07C0
07C0
07E0
07E0
07E0
07E0
03E0
03E0
03E0
03E0
03C0
0780
0F00
3E00
7000
ENDCHAR

STARTCHAR asciitilde
ENCODING 126
SWIDTH 521 0
DWIDTH 26 0
BBX 30 9 -2 10
BITMAP
00000018
07F80018
0FFE0030
1FFFC030
1FFFF0F0
3C3FFFE0
3007FFE0
3001FFC0
20003F80
ENDCHAR

STARTCHAR space
ENCODING 160
SWIDTH 250 0
DWIDTH 15 0
BBX 0 0 0 0
BITMAP
ENDCHAR

STARTCHAR quoteleft
ENCODING 161
SWIDTH 271 0
DWIDTH 14 0
BBX 13 16 0 19
BITMAP
00C0
0380
0600
0E00
0C00
1800
1800
3800
3BC0
3FC0
3FE0
3FE0
3FE0
1FE0
1FC0
0780
ENDCHAR

STARTCHAR quoteright
ENCODING 162
SWIDTH 271 0
DWIDTH 14 0
BBX 13 16 0 19
BITMAP
0F00
1FC0
3FC0
3FE0
3FE0
3FE0
1FE0
0EE0
00E0
00E0
00C0
01C0
0180
0300
0E00
1800
ENDCHAR

STARTCHAR sterling
ENCODING 163
SWIDTH 500 0
DWIDTH 25 0
BBX 26 36 0 -1
BITMAP
0007C000
001FF000
0078F800
00F0FC00
00F0FE00
01F0FE00
01F0FE00
03F0FE00
03F87E00
03F87C00
03F80000
03F80000
03F80000
03F80000
03F80000
03FC0000
7FFFE000
7FFFE000
7FFFE000
7FFFE000
01FC0000
01FC0000
00FC0000
00FC0000
00FC0000
007C0000
007C0000
07780080
1FF80180
3FFE0700
70FFFF00
607FFF00
60FFFE00
71FFFE00
3FC7FC00
1F03F000
ENDCHAR

STARTCHAR brokenbar
ENCODING 166
SWIDTH 220 0
DWIDTH 11 0
BBX 7 45 2 -11
BITMAP
38
38
38
38
38
38
38
38
38
38
38
38
38
38
38
00
00
00
00
00
00
00
00
00
00
00
00
00
00
00
38
38
38
38
38
38
38
38
38
38
38
38
38
38
38
ENDCHAR

STARTCHAR section
ENCODING 167
SWIDTH 500 0
DWIDTH 25 0
BBX 24 46 1 -11
BITMAP
00FF00
03FFC0
07C3E0
0F81E0
0F01F0
0F03F0
1F03F0
1F01E0
1F80E0
1FC000
1FE000
0FF800
0FFC00
07FF00
03FF80
07FFC0
0E7FE0
1C1FF0
380FF8
3807F8
7801FC
7800FC
7C007C
7C007C
7E003C
7F803C
3FC038
3FE038
1FF070
0FFC60
07FFC0
01FF80
00FFC0
003FE0
001FE0
000FF0
0003F0
0F01F0
0F81F0
1F80F0
1F80F0
1F80F0
0F81E0
0FC7C0
03FF80
01FE00
ENDCHAR

STARTCHAR dieresis
ENCODING 168
SWIDTH 333 0
DWIDTH 17 0
BBX 18 6 -1 27
BITMAP
1E0F00
3E1F00
7F3F80
7F3F80
3E1F00
1E0F00
ENDCHAR

STARTCHAR copyright
ENCODING 169
SWIDTH 750 0
DWIDTH 38 0
BBX 40 36 -1 -1
BITMAP
0001FF8000
0007FFF000
001F80FC00
007C001E00
00F0000F00
01C0000380
03800001C0
0700FF08E0
0603E1F870
0E07C07870
0C0F803838
1C1F001838
183F001818
183E00081C
383E00000C
307E00000C
307E00000C
307E00000C
307E00000C
307E00000C
307E00000C
383E00000C
183F00001C
183F000018
1C1F001018
0C0F803038
0E07E06030
0601FF8060
07007E00E0
03800001C0
01C0000380
00F0000F00
007C001E00
001F80F800
0007FFF000
0000FF8000
ENDCHAR

STARTCHAR guillemotleft
ENCODING 171
SWIDTH 500 0
DWIDTH 25 0
BBX 27 23 -1 1
BITMAP
000C0180
00180300
00380700
00700E00
00F01E00
01E03C00
03E07C00
07C0F800
0FC1F800
1F81F000
1F83F000
3F07F000
1F83F000
0FC1F800
07C0F800
03E07C00
01E03C00
00F01E00
00F00E00
00780700
00380700
001C0380
000C0180
ENDCHAR

STARTCHAR logicalnot
ENCODING 172
SWIDTH 667 0
DWIDTH 33 0
BBX 31 17 1 5
BITMAP
3FFFFFF8
3FFFFFF8
3FFFFFF8
3FFFFFF8
3FFFFFF8
000000F8
000000F8
000000F8
000000F8
000000F8
000000F8
000000F8
000000F8
000000F8
000000F8
000000F8
000000F8
ENDCHAR

STARTCHAR hyphen
ENCODING 173
SWIDTH 333 0
DWIDTH 17 0
BBX 17 5 0 9
BITMAP
7FFF00
7FFF00
7FFF00
7FFF00
7FFF00
ENDCHAR

STARTCHAR endash
ENCODING 175
SWIDTH 500 0
DWIDTH 25 0
BBX 29 3 -2 10
BITMAP
3FFFFFE0
3FFFFFE0
3FFFFFE0
ENDCHAR

STARTCHAR degree
ENCODING 176
SWIDTH 396 0
DWIDTH 20 0
BBX 21 17 -1 17
BITMAP
01FC00
03FF00
0FFF80
0F8FC0
1E03C0
3C01E0
3C00E0
3800E0
3800E0
3800E0
3C00E0
3C01E0
1E03C0
0F87C0
0FFF80
03FF00
01FC00
ENDCHAR

STARTCHAR plusminus
ENCODING 177
SWIDTH 667 0
DWIDTH 33 0
BBX 31 36 1 0
BITMAP
0007C000
0007C000
0007C000
0007C000
0007C000
0007C000
0007C000
0007C000
0007C000
0007C000
0007C000
3FFFFFF8
3FFFFFF8
3FFFFFF8
3FFFFFF8
3FFFFFF8
0007C000
0007C000
0007C000
0007C000
0007C000
0007C000
0007C000
0007C000
0007C000
0007C000
0007C000
00000000
00000000
00000000
00000000
3FFFFFF8
3FFFFFF8
3FFFFFF8
3FFFFFF8
3FFFFFF8
ENDCHAR

STARTCHAR twosuperior
ENCODING 178
SWIDTH 313 0
DWIDTH 16 0
BBX 18 18 -1 17
BITMAP
03F000
0FFC00
1FFC00
187E00
303E00
003E00
003E00
003C00
003800
007000
00E000
00C000
018100
030300
07FF00
0FFE00
1FFE00
3FFE00
ENDCHAR

STARTCHAR threesuperior
ENCODING 179
SWIDTH 313 0
DWIDTH 16 0
BBX 17 18 0 17
BITMAP
03E000
0FF800
1FFC00
30FC00
207C00
007800
007000
00F000
07F800
03FC00
007E00
003E00
001E00
001E00
001C00
781800
7E3000
3FC000
ENDCHAR

STARTCHAR acute
ENCODING 180
SWIDTH 333 0
DWIDTH 17 0
BBX 13 8 3 26
BITMAP
0FE0
0FC0
0F80
1F00
1E00
1C00
3800
3800
ENDCHAR

STARTCHAR dieresisacute
ENCODING 181
SWIDTH 333 0
DWIDTH 17 0
BBX 21 7 -2 28
BITMAP
007E00
007C00
1C79C0
3E7BE0
3EF3E0
3EE3E0
1CC1C0
ENDCHAR

STARTCHAR afii9936
ENCODING 182
SWIDTH 708 0
DWIDTH 35 0
BBX 38 35 -1 0
BITMAP
0000100000
03F8100000
03F0300000
03E0380000
07C0780000
07807C0000
0780FC0000
0F00FC0000
0E00FE0000
0001FE0000
0001FF0000
0003FF0000
0003FF8000
00067F8000
00067F8000
00063FC000
000C3FC000
000C3FE000
00181FE000
00181FE000
00300FF000
00300FF000
003007F800
007FFFF800
007FFFFC00
00C003FC00
00C003FC00
00C001FE00
018001FE00
018001FF00
030000FF00
030000FF80
078000FF80
0FC000FFC0
3FF80FFFF0
ENDCHAR

STARTCHAR periodcentered
ENCODING 183
SWIDTH 271 0
DWIDTH 14 0
BBX 11 8 2 13
BITMAP
1E00
3F00
7F80
7F80
7F80
7F80
3F00
1E00
ENDCHAR

STARTCHAR afii9937
ENCODING 184
SWIDTH 875 0
DWIDTH 44 0
BBX 47 34 -3 0
BITMAP
07F3FFFFFFE0
0FE03FFFFFE0
0FC01FE007E0
0F801FE001E0
1F001FE000E0
1E001FE00060
1C001FE00060
38001FE00060
30001FE00020
00001FE02020
00001FE02000
00001FE02000
00001FE02000
00001FE06000
00001FE0E000
00001FE1E000
00001FFFE000
00001FFFE000
00001FE1E000
00001FE0E000
00001FE06000
00001FE02000
00001FE02000
00001FE02000
00001FE02008
00001FE00008
00001FE00018
00001FE00018
00001FE00038
00001FE00078
00001FE000F0
00001FF003F0
00003FFFFFF0
0003FFFFFFF0
ENDCHAR

STARTCHAR afii9938
ENCODING 185
SWIDTH 1042 0
DWIDTH 52 0
BBX 55 34 -2 0
BITMAP
0FE7FFFE0FFFFC
0FC07FE000FFC0
1F803FE000FF80
1F003FC0007F80
1E003FC0007F80
3C003FC0007F80
38003FC0007F80
30003FC0007F80
60003FC0007F80
00003FC0007F80
00003FC0007F80
00003FC0007F80
00003FC0007F80
00003FC0007F80
00003FC0007F80
00003FC0007F80
00003FFFFFFF80
00003FFFFFFF80
00003FC0007F80
00003FC0007F80
00003FC0007F80
00003FC0007F80
00003FC0007F80
00003FC0007F80
00003FC0007F80
00003FC0007F80
00003FC0007F80
00003FC0007F80
00003FC0007F80
00003FC0007F80
00003FC0007F80
00003FE0007FC0
00007FE000FFC0
0003FFFE0FFFF8
ENDCHAR

STARTCHAR afii9939
ENCODING 186
SWIDTH 594 0
DWIDTH 30 0
BBX 32 34 -2 0
BITMAP
0FE7FFFE
0FC07FE0
1F803FC0
1F003FC0
1E003FC0
3C003FC0
38003FC0
30003FC0
00003FC0
00003FC0
00003FC0
00003FC0
00003FC0
00003FC0
00003FC0
00003FC0
00003FC0
00003FC0
00003FC0
00003FC0
00003FC0
00003FC0
00003FC0
00003FC0
00003FC0
00003FC0
00003FC0
00003FC0
00003FC0
00003FC0
00003FC0
00003FE0
00007FE0
0007FFFE
ENDCHAR

STARTCHAR guillemotright
ENCODING 187
SWIDTH 500 0
DWIDTH 25 0
BBX 27 23 -1 1
BITMAP
30060000
18030000
1C038000
0E01C000
0F01E000
0780F000
07C0F800
03E07C00
03F07E00
01F83F00
01F83F80
00FC1F80
01F83F00
01F03E00
03E07C00
07C07800
0780F000
0F00F000
0E01E000
1E01C000
1C038000
38070000
30060000
ENDCHAR

STARTCHAR afii9940
ENCODING 188
SWIDTH 875 0
DWIDTH 44 0
BBX 45 36 -2 -1
BITMAP
000007FC0000
07F03FFF8000
0FE0FE07E000
0FC3F803F800
1F87F001FC00
1F0FE000FE00
1E1FC0007F00
3C3FC0007F80
383F80003FC0
007F80003FC0
007F80003FE0
00FF80003FE0
00FF00001FE0
00FF00001FF0
01FF00001FF0
01FF00001FF0
01FF00001FF0
01FF00001FF0
01FF00001FF0
01FF00001FF0
01FF00001FF0
01FF00001FF0
00FF00001FF0
00FF80001FE0
00FF80001FE0
007F80003FC0
007F80003FC0
003FC0003F80
003FC0007F80
001FC0007F00
000FE000FE00
0007F001FC00
0003F803F800
0000FC07E000
00003FFF8000
000007FC0000
ENDCHAR

STARTCHAR onehalf
ENCODING 189
SWIDTH 896 0
DWIDTH 45 0
BBX 45 36 1 -1
BITMAP
00C00001C000
03C000038000
1FC000038000
2FC000070000
07C0000E0000
07C0000E0000
07C0001C0000
07C0001C0000
07C000380000
07C000700000
07C000700000
07C000E00000
07C000E00000
07C001C00000
07C003800000
07C003800000
07C007000000
3FF807007E00
00000E01FF80
00001C01FF80
00001C030FC0
0000380207C0
0000380007C0
0000700007C0
0000E0000780
0000E0000700
0001C0000E00
0001C0001C00
000380001800
000700003020
000700006060
000E0000FFE0
000E0001FFC0
001C0003FFC0
00380007FFC0
003800000000
ENDCHAR

STARTCHAR afii9941
ENCODING 190
SWIDTH 927 0
DWIDTH 46 0
BBX 49 34 -2 0
BITMAP
0FE7FFF807FF00
1FC1FFC000FC00
1F807FC0007800
1F007FC0007000
3E003FE0006000
3C003FE0006000
38001FF000C000
70001FF000C000
00000FF8018000
000007F8018000
000007FC030000
000003FC060000
000003FE060000
000001FE0C0000
000001FF0C0000
000000FF180000
000000FF980000
0000007FF00000
0000007FF00000
0000003FE00000
0000001FE00000
0000001FE00000
0000001FE00000
0000001FE00000
0000001FE00000
0000001FE00000
0000001FE00000
0000001FE00000
0000001FE00000
0000001FE00000
0000001FE00000
0000001FE00000
0000003FF00000
000003FFFF0000
ENDCHAR

STARTCHAR afii9942
ENCODING 191
SWIDTH 875 0
DWIDTH 44 0
BBX 46 35 -2 0
BITMAP
00000FFC0000
0FE0FFFFC000
1FC3FC0FF000
1F87F003FC00
1F1FE001FE00
3E3FC000FF00
3C3FC0007F80
387F80007F80
707F80007FC0
00FF80003FC0
00FF00003FC0
01FF00003FE0
01FF00003FE0
01FF00003FE0
01FF00003FE0
01FF00003FE0
01FF00003FE0
00FF00003FE0
00FF00003FC0
00FF00003FC0
007F80003F80
007F80007F80
003F80007F00
001FC000FE00
000FE000FC00
0003F003F000
0200F807C010
020018060010
030018060030
03FFF807FFF0
03FFF807FFF0
03FFF807FFF0
03FFF807FFF0
03FFF807FFF0
03FFFC07FFF0
ENDCHAR

STARTCHAR afii9977
ENCODING 192
SWIDTH 333 0
DWIDTH 17 0
BBX 21 36 -2 -1
BITMAP
007E00
007C00
1C79C0
3E73E0
3EF3E0
3EE3E0
1CC1C0
000000
000000
000000
000000
000000
1FF800
07F800
03F800
03F800
03F800
03F800
03F800
03F800
03F800
03F800
03F800
03F800
03F800
03F800
03F800
03F800
03F840
03F840
03F880
03FC80
03FF80
01FF00
00FE00
007C00
ENDCHAR

STARTCHAR afii9793
ENCODING 193
SWIDTH 719 0
DWIDTH 36 0
BBX 38 35 -1 0
BITMAP
0000100000
0000300000
0000380000
0000780000
0000780000
00007C0000
0000FC0000
0000FE0000
0001FE0000
0001FE0000
0001FF0000
0003FF0000
0003FF8000
00067F8000
00067FC000
000C3FC000
000C3FC000
000C1FE000
00181FE000
00181FF000
00300FF000
00300FF000
003007F800
007FFFF800
007FFFFC00
00C003FC00
00C003FC00
00C001FE00
018001FE00
018001FF00
030000FF00
030000FF80
078000FF80
0FC000FFC0
3FF80FFFF0
ENDCHAR

STARTCHAR afii9794
ENCODING 194
SWIDTH 667 0
DWIDTH 33 0
BBX 34 34 -1 0
BITMAP
3FFFFF0000
07FFFFE000
03FC1FF000
03FC07F800
03FC03FC00
03FC03FE00
03FC01FE00
03FC01FE00
03FC01FE00
03FC01FE00
03FC01FE00
03FC03FC00
03FC03FC00
03FC07F800
03FC1FE000
03FFFF0000
03FFFFC000
03FC1FF000
03FC07FC00
03FC03FE00
03FC01FF00
03FC01FF00
03FC00FF80
03FC00FF80
03FC00FF80
03FC00FF80
03FC00FF80
03FC00FF00
03FC01FF00
03FC01FE00
03FC03FC00
03FE0FF800
07FFFFE000
7FFFFF0000
ENDCHAR

STARTCHAR afii9796
ENCODING 195
SWIDTH 667 0
DWIDTH 33 0
BBX 34 34 -1 0
BITMAP
3FFFFFFF80
03FFFFFF80
01FE000F80
01FE000380
01FE000380
01FE000180
01FE000180
01FE000080
01FE000080
01FE000000
01FE000000
01FE000000
01FE000000
01FE000000
01FE000000
01FE000000
01FE000000
01FE000000
01FE000000
01FE000000
01FE000000
01FE000000
01FE000000
01FE000000
01FE000000
01FE000000
01FE000000
01FE000000
01FE000000
01FE000000
01FE000000
01FE000000
03FF000000
3FFFF80000
ENDCHAR

STARTCHAR afii9797
ENCODING 196
SWIDTH 667 0
DWIDTH 33 0
BBX 33 35 0 0
BITMAP
0000800000
0000C00000
0001C00000
0001E00000
0001E00000
0003E00000
0003F00000
0007F00000
0007F80000
000FF80000
000FF80000
000FFC0000
001BFC0000
001BFE0000
0031FE0000
0031FF0000
0030FF0000
0060FF0000
0060FF8000
00C07F8000
00C07FC000
01803FC000
01803FC000
01801FE000
03001FE000
03001FF000
06000FF000
06000FF800
0C0007F800
0C0007F800
0C0003FC00
180003FC00
180003FE00
3FFFFFFE00
3FFFFFFE00
ENDCHAR

STARTCHAR afii9798
ENCODING 197
SWIDTH 667 0
DWIDTH 33 0
BBX 34 34 0 0
BITMAP
7FFFFFFC00
07FFFFFC00
03FC00FC00
03FC003C00
03FC001C00
03FC000C00
03FC000C00
03FC000C00
03FC000400
03FC040400
03FC040000
03FC040000
03FC040000
03FC0C0000
03FC1C0000
03FC3C0000
03FFFC0000
03FFFC0000
03FC3C0000
03FC1C0000
03FC0C0000
03FC040000
03FC040000
03FC040000
03FC040100
03FC000100
03FC000300
03FC000300
03FC000700
03FC000F00
03FC001E00
03FE007E00
07FFFFFE00
7FFFFFFE00
ENDCHAR

STARTCHAR afii9801
ENCODING 198
SWIDTH 719 0
DWIDTH 36 0
BBX 36 34 0 0
BITMAP
07FFFFFF00
07FFFFFF00
07E003FE00
078007FC00
070007FC00
06000FF800
04001FF000
04001FF000
04003FE000
00007FC000
00007FC000
0000FF8000
0000FF0000
0001FF0000
0003FE0000
0003FE0000
0007FC0000
000FF80000
000FF80000
001FF00000
003FE00000
003FE00000
007FC00040
00FF800040
00FF800040
01FF0000C0
03FE0000C0
03FE0001C0
07FC0003C0
07FC0007C0
0FF8000F80
1FF0003F80
1FFFFFFF80
3FFFFFFF80
ENDCHAR

STARTCHAR afii9802
ENCODING 199
SWIDTH 823 0
DWIDTH 41 0
BBX 43 34 -1 0
BITMAP
7FFFE0FFFFC0
07FE000FFC00
03FE000FF800
03FC0007F800
03FC0007F800
03FC0007F800
03FC0007F800
03FC0007F800
03FC0007F800
03FC0007F800
03FC0007F800
03FC0007F800
03FC0007F800
03FC0007F800
03FC0007F800
03FC0007F800
03FFFFFFF800
03FFFFFFF800
03FC0007F800
03FC0007F800
03FC0007F800
03FC0007F800
03FC0007F800
03FC0007F800
03FC0007F800
03FC0007F800
03FC0007F800
03FC0007F800
03FC0007F800
03FC0007F800
03FC0007F800
03FE0007FC00
07FE000FFC00
3FFFE0FFFF80
ENDCHAR

STARTCHAR afii9803
ENCODING 200
SWIDTH 823 0
DWIDTH 41 0
BBX 39 36 1 -1
BITMAP
0001FE0000
000FFFE000
003F83F800
00FE00FE00
01FC007F00
03F8003F80
07F0001FC0
0FF0001FE0
0FE0000FE0
1FE0000FF0
1FE0000FF0
3FE0000FF8
3FC20087F8
3FC20087F8
7FC30187FC
7FC3FF87FC
7FC3FF87FC
7FC3FF87FC
7FC3FF87FC
7FC3FF87FC
7FC3FF87FC
7FC38187FC
3FC20087F8
3FC20087F8
3FE00007F8
1FE0000FF0
1FE0000FF0
0FF0000FF0
0FF0001FE0
07F8001FC0
03F8003F80
01FC007F00
00FE00FE00
003F81F800
000FFFE000
0001FF0000
ENDCHAR

STARTCHAR afii9804
ENCODING 201
SWIDTH 385 0
DWIDTH 19 0
BBX 20 34 0 0
BITMAP
7FFFE0
07FE00
03FC00
03FC00
03FC00
03FC00
03FC00
03FC00
03FC00
03FC00
03FC00
03FC00
03FC00
03FC00
03FC00
03FC00
03FC00
03FC00
03FC00
03FC00
03FC00
03FC00
03FC00
03FC00
03FC00
03FC00
03FC00
03FC00
03FC00
03FC00
03FC00
03FE00
07FE00
7FFFE0
ENDCHAR

STARTCHAR afii9805
ENCODING 202
SWIDTH 719 0
DWIDTH 36 0
BBX 37 34 -1 0
BITMAP
7FFFC7FFC0
07FE00FE00
03FC007C00
03FC007000
03FC00E000
03FC00C000
03FC018000
03FC038000
03FC070000
03FC0E0000
03FC0C0000
03FC180000
03FC300000
03FC780000
03FCFC0000
03FDFC0000
03FFFE0000
03FFFF0000
03FFFF0000
03FCFF8000
03FCFF8000
03FC7FC000
03FC3FE000
03FC3FE000
03FC1FF000
03FC0FF800
03FC0FF800
03FC07FC00
03FC03FE00
03FC03FE00
03FC01FF00
03FE01FF80
07FE01FFC0
7FFFCFFFF0
ENDCHAR

STARTCHAR afii9806
ENCODING 203
SWIDTH 719 0
DWIDTH 36 0
BBX 37 35 0 0
BITMAP
0000200000
0000200000
0000700000
0000700000
0000F00000
0000F80000
0000F80000
0001FC0000
0001FC0000
0003FC0000
0003FE0000
0007FE0000
0007FF0000
0006FF0000
000CFF0000
000C7F8000
00187F8000
00187FC000
00303FC000
00303FE000
00301FE000
00601FE000
00600FF000
00C00FF000
00C00FF800
00C007F800
018007F800
018003FC00
030003FC00
030003FE00
070001FE00
060001FE00
0F0001FF00
1F8001FF80
7FE01FFFE0
ENDCHAR

STARTCHAR afii9807
ENCODING 204
SWIDTH 990 0
DWIDTH 49 0
BBX 51 34 -1 0
BITMAP
3FFE00000FFFC0
07FF00000FFC00
03FF00001FFC00
03FF80001FF800
037F800037F800
037FC00037F800
033FC00067F800
033FC00067F800
031FE000C7F800
031FE000C7F800
031FF00187F800
030FF00187F800
030FF80107F800
0307F80307F800
0307FC0307F800
0303FC0607F800
0303FE0607F800
0301FE0C07F800
0301FE0C07F800
0300FF1807F800
0300FF1807F800
0300FF9007F800
03007FB007F800
03007FF007F800
03003FE007F800
03003FE007F800
03001FC007F800
03001FC007F800
03000F8007F800
03000F8007F800
03000F0007F800
0780070007F800
0FC006000FFC00
3FF80200FFFFC0
ENDCHAR

STARTCHAR afii9808
ENCODING 205
SWIDTH 771 0
DWIDTH 39 0
BBX 40 34 0 0
BITMAP
7FF8001FFC
1FFC0003F0
07FE0001E0
07FF0000C0
03FF8000C0
03FFC000C0
03FFC000C0
037FE000C0
033FF000C0
031FF800C0
030FFC00C0
0307FE00C0
0307FF00C0
0303FF80C0
0301FF80C0
0300FFC0C0
03007FE0C0
03003FF0C0
03001FF8C0
03000FFCC0
030007FEC0
030007FFC0
030003FFC0
030001FFC0
030000FFC0
0300007FC0
0300003FC0
0300001FC0
0300000FC0
03000007C0
03000007C0
03000003C0
0FC00001C0
7FF80000C0
ENDCHAR

STARTCHAR afii9809
ENCODING 206
SWIDTH 667 0
DWIDTH 33 0
BBX 33 34 1 0
BITMAP
3FFFFFFC00
3FFFFFFC00
3FFFFFFC00
3FFFFFFC00
3FFFFFFC00
3FFFFFFC00
3FFFFFFC00
3000000C00
2000000400
2000000400
0000000000
0100008000
0100008000
0180018000
01FFFF8000
01FFFF8000
01FFFF8000
01FFFF8000
01FFFF8000
01FFFF8000
0180018000
0100008000
0100008000
4000000200
4000000200
4000000200
6000000600
7FFFFFFE00
7FFFFFFE00
7FFFFFFE00
7FFFFFFE00
7FFFFFFE00
7FFFFFFE00
7FFFFFFE00
ENDCHAR

STARTCHAR afii9810
ENCODING 207
SWIDTH 823 0
DWIDTH 41 0
BBX 39 36 1 -1
BITMAP
0001FF0000
000FFFE000
003F81F800
00FE00FE00
01FC007F00
03F8003F80
07F0001FC0
0FF0001FE0
0FE0000FF0
1FE0000FF0
1FE0000FF8
3FE0000FF8
3FC00007F8
3FC00007FC
7FC00007FC
7FC00007FC
7FC00007FC
7FC00007FC
7FC00007FC
7FC00007FC
7FC00007FC
7FC00007FC
3FC00007FC
3FE00007F8
3FE00007F8
1FE0000FF0
1FE0000FF0
0FF0000FE0
0FF0001FE0
07F0001FC0
03F8003F80
01FC007F00
00FE00FE00
003F01F800
000FFFE000
0001FF0000
ENDCHAR

STARTCHAR afii9811
ENCODING 208
SWIDTH 823 0
DWIDTH 41 0
BBX 42 34 0 0
BITMAP
7FFFFFFFFF80
07FFFFFFF800
03FC000FF000
03FC000FF000
03FC000FF000
03FC000FF000
03FC000FF000
03FC000FF000
03FC000FF000
03FC000FF000
03FC000FF000
03FC000FF000
03FC000FF000
03FC000FF000
03FC000FF000
03FC000FF000
03FC000FF000
03FC000FF000
03FC000FF000
03FC000FF000
03FC000FF000
03FC000FF000
03FC000FF000
03FC000FF000
03FC000FF000
03FC000FF000
03FC000FF000
03FC000FF000
03FC000FF000
03FC000FF000
03FC000FF000
03FC000FF000
07FE001FF800
7FFFC0FFFF80
ENDCHAR

STARTCHAR afii9813
ENCODING 209
SWIDTH 667 0
DWIDTH 33 0
BBX 34 34 0 0
BITMAP
7FFFFF0000
07FFFFE000
03FC07F800
03FC03FC00
03FC01FE00
03FC01FF00
03FC00FF00
03FC00FF80
03FC00FF80
03FC00FF80
03FC00FF80
03FC00FF80
03FC00FF00
03FC01FF00
03FC01FE00
03FC03FC00
03FC0FF800
03FFFFE000
03FFFE0000
03FC000000
03FC000000
03FC000000
03FC000000
03FC000000
03FC000000
03FC000000
03FC000000
03FC000000
03FC000000
03FC000000
03FC000000
03FE000000
07FE000000
7FFFE00000
ENDCHAR

STARTCHAR afii9814
ENCODING 211
SWIDTH 667 0
DWIDTH 33 0
BBX 34 34 0 0
BITMAP
7FFFFFFC00
7FFFFFFC00
3FE001FC00
3FE0007C00
1FF0001C00
0FF8000C00
07FC000C00
07FC000400
03FE000400
01FF000400
01FF800000
00FF800000
007FC00000
003FE00000
003FC00000
001F800000
000F800000
0007000000
0006000000
000C000000
0018000000
0038000000
0070000100
00E0000100
00C0000300
0180000700
0380000F00
07FFFFFF00
0FFFFFFE00
1FFFFFFE00
3FFFFFFE00
3FFFFFFE00
7FFFFFFE00
7FFFFFFE00
ENDCHAR

STARTCHAR afii9816
ENCODING 212
SWIDTH 667 0
DWIDTH 33 0
BBX 34 34 0 0
BITMAP
3FFFFFFF00
3FFFFFFF00
3E07F80F00
3807F80700
3007F80300
3007F80100
2007F80100
2007F80100
2007F80100
0007F80000
0007F80000
0007F80000
0007F80000
0007F80000
0007F80000
0007F80000
0007F80000
0007F80000
0007F80000
0007F80000
0007F80000
0007F80000
0007F80000
0007F80000
0007F80000
0007F80000
0007F80000
0007F80000
0007F80000
0007F80000
0007F80000
0007FC0000
000FFC0000
00FFFFC000
ENDCHAR

STARTCHAR afii9817
ENCODING 213
SWIDTH 719 0
DWIDTH 36 0
BBX 37 34 0 0
BITMAP
7FFF807FF0
1FFC000FC0
07FC000780
07FC000700
03FE000600
03FE000600
01FF000C00
01FF000C00
00FF801800
007F801800
007FC03000
003FC06000
003FE06000
001FE0C000
001FF0C000
000FF18000
000FF98000
0007FF0000
0007FF0000
0003FE0000
0001FE0000
0001FE0000
0001FE0000
0001FE0000
0001FE0000
0001FE0000
0001FE0000
0001FE0000
0001FE0000
0001FE0000
0001FE0000
0001FE0000
0003FF0000
003FFFF000
ENDCHAR

STARTCHAR afii9818
ENCODING 214
SWIDTH 823 0
DWIDTH 41 0
BBX 41 34 1 0
BITMAP
000FFFF00000
0001FF800000
0000FF000000
0000FF000000
0000FF000000
003FFFFC0000
01FEFFFF8000
03F0FF0FC000
07E0FF07F000
0FE0FF03F000
1FC0FF03F800
3FC0FF03FC00
3FC0FF01FC00
3F80FF01FE00
7F80FF01FE00
7F80FF01FE00
7F80FF01FE00
7F80FF01FE00
7F80FF01FE00
7F80FF01FE00
3F80FF01FC00
3F80FF01FC00
3FC0FF03FC00
1FC0FF03F800
0FE0FF03F000
07E0FF07E000
03F8FF0FC000
01FFFFFF8000
003FFFFC0000
0000FF000000
0000FF000000
0000FF000000
0001FF800000
000FFFF00000
ENDCHAR

STARTCHAR afii9819
ENCODING 215
SWIDTH 719 0
DWIDTH 36 0
BBX 38 34 -1 0
BITMAP
3FFFC1FFE0
0FFE003F00
07FE003E00
03FE001C00
03FF003800
01FF003000
00FF807000
00FFC06000
007FC0C000
003FE18000
003FF38000
001FF30000
000FFE0000
000FFC0000
0007FC0000
0003FE0000
0003FE0000
0001FF0000
0000FF8000
0001FF8000
0001FFC000
00037FE000
00063FE000
000E1FF000
000C1FF800
00180FF800
003007FC00
007007FC00
006003FE00
00C003FF00
01C001FF80
03C001FF80
0FE001FFE0
3FFC0FFFF0
ENDCHAR

STARTCHAR afii9820
ENCODING 216
SWIDTH 823 0
DWIDTH 41 0
BBX 42 34 0 0
BITMAP
3F83FFF03F00
0FC0FFC0FE00
0FE07F81FC00
0FE07F81FC00
0FF07F83FC00
0FF07F83FC00
0FF07F83FC00
0FF07F83FC00
0FF07F83FC00
0FF07F83FC00
0FF07F83FC00
07F87F83F800
07F87F87F800
07F87F87F800
03F87F87F000
01F87F87E000
00FC7F8FC000
007F7FBF8000
000FFFFE0000
0000FFC00000
00007F800000
00007F800000
00007F800000
00007F800000
00007F800000
00007F800000
00007F800000
00007F800000
00007F800000
00007F800000
00007F800000
00007F800000
0000FFC00000
0003FFF00000
ENDCHAR

STARTCHAR afii9821
ENCODING 217
SWIDTH 823 0
DWIDTH 41 0
BBX 42 35 0 0
BITMAP
0000FFC00000
000FFFFC0000
003FC0FF0000
007F003FC000
01FE001FE000
03FC000FF000
03FC0007F800
07F80007F800
07F80007FC00
0FF80003FC00
0FF00003FC00
1FF00003FE00
1FF00003FE00
1FF00003FE00
1FF00003FE00
1FF00003FE00
1FF00003FE00
0FF00003FE00
0FF00003FC00
0FF00003FC00
07F80003F800
07F80007F800
03F80007F000
01FC000FE000
00FE000FC000
003F003F0000
200F807C0100
200180600100
300180600300
3FFF807FFF00
3FFF807FFF00
3FFF807FFF00
3FFF807FFF00
3FFF807FFF00
3FFFC07FFF00
ENDCHAR

STARTCHAR afii9943
ENCODING 218
SWIDTH 385 0
DWIDTH 19 0
BBX 24 44 -2 0
BITMAP
1F0078
1F80FC
3F81FC
3F81FC
3F81FC
3F81FC
1F00F8
000000
000000
000000
1FFFF8
01FF80
00FF00
00FF00
00FF00
00FF00
00FF00
00FF00
00FF00
00FF00
00FF00
00FF00
00FF00
00FF00
00FF00
00FF00
00FF00
00FF00
00FF00
00FF00
00FF00
00FF00
00FF00
00FF00
00FF00
00FF00
00FF00
00FF00
00FF00
00FF00
00FF00
00FF80
01FF80
1FFFF8
ENDCHAR

STARTCHAR afii9944
ENCODING 219
SWIDTH 719 0
DWIDTH 36 0
BBX 37 44 0 0
BITMAP
001F00F000
001F81F800
003F83F800
003F83F800
003F83F800
003F83F800
001F01F000
0000000000
0000000000
0000000000
7FFF807FF0
1FFC000FC0
07FC000780
07FC000700
03FE000600
03FE000600
01FF000C00
01FF000C00
00FF801800
007F801800
007FC03000
003FC06000
003FE06000
001FE0C000
001FF0C000
000FF18000
000FF98000
0007FF0000
0007FF0000
0003FE0000
0001FE0000
0001FE0000
0001FE0000
0001FE0000
0001FE0000
0001FE0000
0001FE0000
0001FE0000
0001FE0000
0001FE0000
0001FE0000
0001FE0000
0003FF0000
003FFFF000
ENDCHAR

STARTCHAR afii9968
ENCODING 220
SWIDTH 552 0
DWIDTH 28 0
BBX 28 36 0 -1
BITMAP
000FE000
000FC000
001F8000
001F0000
001E0000
003C0000
00380000
00300000
00000000
00000000
00000000
007C0000
01FE1F80
03E33F80
07C1BF80
0FC1BF80
0FC0FF80
1F80FF00
1F807F00
1F807F00
3F807F00
3F807E00
3F80FE00
3F80FE00
3F80FE00
3F80FE00
3F80FC00
3F81FC00
1F81FC20
1F81FC20
1F81FC20
0FC3F660
07C3F7E0
03C7E7C0
01FF83C0
007E0180
ENDCHAR

STARTCHAR afii9969
ENCODING 221
SWIDTH 438 0
DWIDTH 22 0
BBX 23 36 -1 -1
BITMAP
003F80
003F00
003E00
007C00
007800
007000
00E000
00C000
000000
000000
000000
01FF80
07FFE0
0FC1F0
1FC1F0
1F81F0
1F80E0
1F8000
0F8000
0FC000
07C000
01FF80
007F80
03E000
0FC000
1FC000
3F8000
3F8000
3F80F0
3F80F8
3F80F8
1FC0F8
1FC0F8
0FE1F0
03FFE0
007F00
ENDCHAR

STARTCHAR afii9970
ENCODING 222
SWIDTH 604 0
DWIDTH 30 0
BBX 29 46 0 -11
BITMAP
0007F000
0007E000
0007C000
000F8000
000F0000
000E0000
001E0000
001C0000
00000000
00000000
00000000
07C03E00
0FE0FF80
1FF1FFC0
3FFB1FC0
23FE0FC0
23FC0FE0
43F80FE0
43F80FE0
03F80FE0
03F80FE0
03F80FE0
03F80FE0
03F80FE0
03F80FE0
03F80FE0
03F80FE0
03F80FE0
03F80FE0
03F80FE0
03F80FE0
03F80FE0
03F80FE0
03F80FE0
03F80FE0
00000FE0
00000FE0
00000FE0
00000FE0
00000FE0
00000FE0
00000FE0
00000FE0
000007F0
000007F0
000007F0
ENDCHAR

STARTCHAR afii9971
ENCODING 223
SWIDTH 333 0
DWIDTH 17 0
BBX 17 36 0 -1
BITMAP
01FC00
03F800
03F000
03E000
07C000
078000
070000
0E0000
0C0000
000000
000000
000000
7FE000
1FE000
0FE000
0FE000
0FE000
0FE000
0FE000
0FE000
0FE000
0FE000
0FE000
0FE000
0FE000
0FE000
0FE000
0FE000
0FE100
0FE300
0FE200
0FF200
0FFE00
07FC00
03F800
01F000
ENDCHAR

STARTCHAR afii9978
ENCODING 224
SWIDTH 500 0
DWIDTH 25 0
BBX 25 36 0 -1
BITMAP
001F8000
001F0000
071E7000
0F9EF800
0FBCF800
0FB8F800
07307000
00000000
00000000
00000000
00000000
0C000000
3F01C000
3F80E000
3FC07000
3FC03800
1FC03C00
1FE03C00
0FE01E00
0FE01E00
0FE01E00
0FE01E00
0FE01E00
0FE01E00
0FE01E00
0FE01E00
0FE01E00
0FE01E00
0FE01C00
0FE03C00
0FE03800
07E03800
07E07000
03F0E000
01FFC000
003E0000
ENDCHAR

STARTCHAR afii9825
ENCODING 225
SWIDTH 552 0
DWIDTH 28 0
BBX 28 25 0 -1
BITMAP
007C0000
01FE1F80
03E33F80
07C1BF80
0FC1BF80
0FC0FF80
1F80FF00
1F807F00
1F807F00
3F807F00
3F807E00
3F80FE00
3F80FE00
3F80FE00
3F80FE00
3F80FC00
3F81FC00
1F81FC20
1F81FC20
1F81FC20
0FC3F660
07C3F7E0
03C7E7C0
01FF83C0
007E0180
ENDCHAR

STARTCHAR afii9826
ENCODING 226
SWIDTH 500 0
DWIDTH 25 0
BBX 25 46 1 -11
BITMAP
007E0000
03FFC000
0FC3F000
0FC1F800
1F81F800
1F81FC00
3F81FC00
3F81FC00
3F81FC00
3F81FC00
3F81F800
3F81F800
3F81F000
3F9FC000
3F9F8000
3F9FE000
3F81F000
3F81F800
3F80F800
3F80FC00
3F80FC00
3F80FE00
3F80FE00
3F80FE00
3F80FE00
3F80FE00
3F80FE00
3F80FE00
3F80FE00
3F80FC00
3F81FC00
3F81F800
3FC1F800
3FE7F000
3FBFE000
3F9F8000
3F800000
3F800000
3F800000
3F800000
3F800000
3F800000
3F800000
3F800000
3F800000
7F000000
ENDCHAR

STARTCHAR afii9828
ENCODING 227
SWIDTH 500 0
DWIDTH 25 0
BBX 25 34 0 -11
BITMAP
0F007F00
1F807E00
3FC07E00
3FC0FC00
3FC0FC00
71E0F800
60E0F800
4061F000
4071F000
4031E000
0031E000
0033E000
0033C000
001BC000
001B8000
001F8000
001F0000
001F0000
000E0000
000E0000
000C0000
001C0000
001C0000
003E0000
003E0000
003E0000
007E0000
007E0000
007E0000
00FE0000
00FE0000
00FC0000
007C0000
00380000
ENDCHAR

STARTCHAR afii9829
ENCODING 228
SWIDTH 500 0
DWIDTH 25 0
BBX 26 37 -1 -1
BITMAP
003F8000
00FFE000
0187F000
0303F800
0301F800
0300F800
03807000
01800000
01E00000
00F00000
00780000
003E0000
001F8000
000FC000
000FE000
007FF000
01F3F800
03E1FC00
07C1FC00
0FC0FE00
1FC0FE00
1F80FF00
3F807F00
3F807F00
3F807F00
3F807F00
3F807F00
3F807F00
1F807F00
1F807E00
1F807E00
0FC0FC00
07C0FC00
07C0F800
03E1F000
00FFC000
003F0000
ENDCHAR

STARTCHAR afii9830
ENCODING 229
SWIDTH 438 0
DWIDTH 22 0
BBX 23 25 -1 -1
BITMAP
01FF80
07FFE0
0FC1F0
1FC1F0
1F81F0
1F80E0
1F8000
0F8000
0FC000
07C000
01FF80
007F80
03E000
0FC000
1FC000
3F8000
3F8000
3F80F0
3F80F8
3F80F8
1FC0F8
1FC0F8
0FE1F0
03FFE0
007F00
ENDCHAR

STARTCHAR afii9833
ENCODING 230
SWIDTH 438 0
DWIDTH 22 0
BBX 22 46 0 -11
BITMAP
038060
0701F0
0607E0
0E0FE0
0E1FC0
073F80
03FC00
00C000
018000
018000
030000
060000
060000
0C0000
0C0000
080000
180000
180000
180000
300000
300000
300000
300000
300000
300000
300000
380000
380000
3E0000
1FFF80
1FFFE0
1FFFF0
0FFFF0
0FFFF8
07FFF8
01FFF8
000038
000018
000018
000018
000010
003C70
007FE0
007FE0
003F80
001E00
ENDCHAR

STARTCHAR afii9834
ENCODING 231
SWIDTH 604 0
DWIDTH 30 0
BBX 29 35 0 -11
BITMAP
07C03E00
0FE0FF80
1FF1FFC0
3FFB1FC0
23FE0FC0
23FC0FE0
43F80FE0
43F80FE0
03F80FE0
03F80FE0
03F80FE0
03F80FE0
03F80FE0
03F80FE0
03F80FE0
03F80FE0
03F80FE0
03F80FE0
03F80FE0
03F80FE0
03F80FE0
03F80FE0
03F80FE0
03F80FE0
00000FE0
00000FE0
00000FE0
00000FE0
00000FE0
00000FE0
00000FE0
00000FE0
000007F0
000007F0
000007F0
ENDCHAR

STARTCHAR afii9835
ENCODING 232
SWIDTH 500 0
DWIDTH 25 0
BBX 26 36 0 -1
BITMAP
001F0000
00FFC000
01E1E000
03E1F000
07C0F800
07C0FC00
0FC0FC00
0FC07C00
1F807E00
1F807E00
1F807E00
1F807F00
3F807F00
3F807F00
3F807F00
3F807F00
3F807F00
3FFFFF00
3FFFFF00
3F807F00
3F807F00
3F807F00
3F807F00
3F807F00
3F807F00
1F807E00
1F807E00
1F807E00
0FC07C00
0FC0FC00
07C0F800
07C0F800
03E1F000
01E1E000
007FC000
001E0000
ENDCHAR

STARTCHAR afii9836
ENCODING 233
SWIDTH 333 0
DWIDTH 17 0
BBX 17 24 0 -1
BITMAP
7FE000
1FE000
0FE000
0FE000
0FE000
0FE000
0FE000
0FE000
0FE000
0FE000
0FE000
0FE000
0FE000
0FE000
0FE000
0FE000
0FE100
0FE300
0FE200
0FF200
0FFE00
07FC00
03F800
01F000
ENDCHAR

STARTCHAR afii9837
ENCODING 234
SWIDTH 552 0
DWIDTH 28 0
BBX 29 23 0 0
BITMAP
7FE00780
1FE01FC0
0FE03FC0
0FE07FC0
0FE0C180
0FE18000
0FE30000
0FE30000
0FE78000
0FEF8000
0FEFC000
0FFFE000
0FFFE000
0FEFF000
0FE7F800
0FE3F800
0FE3FC00
0FE1FE00
0FE0FE00
0FE0FF00
0FE07F80
0FE07FC0
0FE1FFE0
ENDCHAR

STARTCHAR afii9838
ENCODING 235
SWIDTH 552 0
DWIDTH 28 0
BBX 28 35 0 0
BITMAP
03800000
07C00000
0FE00000
0FF00000
1FF00000
18300000
10180000
10180000
00180000
00080000
000C0000
000C0000
000C0000
001C0000
001E0000
003E0000
003E0000
007E0000
007F0000
007F0000
00FF0000
00FD0000
01FD8000
01F98000
03F98000
03F88000
03F0C000
07F0C040
07E0C040
0FE060C0
0FC071C0
1FC07FC0
1FC03F80
1F803F80
3F801F00
ENDCHAR

STARTCHAR afii9839
ENCODING 236
SWIDTH 552 0
DWIDTH 28 0
BBX 29 34 -1 -11
BITMAP
1FC0FE00
1FC0FE00
1FC0FE00
1FC0FE00
1FC0FE00
1FC0FE00
1FC0FE00
1FC0FE00
1FC0FE00
1FC0FE00
1FC0FE00
1FC0FE00
1FC0FE00
1FC0FE00
1FC0FE00
1FC0FE00
1FC0FE00
1FC0FE20
1FC1FE20
1FC1FF20
1FE77FE0
1FFE7FC0
1FFC3F80
1FF01F00
1E000000
1E000000
1F000000
3F000000
3F000000
3F000000
3F000000
3F000000
3F000000
1E000000
ENDCHAR

STARTCHAR afii9840
ENCODING 237
SWIDTH 500 0
DWIDTH 25 0
BBX 25 25 1 -1
BITMAP
00C01C00
3FC03E00
7FC03E00
0FE03E00
0FE03E00
0FE03E00
07F01E00
07F01C00
07F01C00
03F81C00
03F81800
03F83000
01FC3000
01FC6000
01FC6000
00FEC000
00FEC000
00FF8000
007F0000
007F0000
007E0000
007E0000
003C0000
00380000
00380000
ENDCHAR

STARTCHAR afii9841
ENCODING 238
SWIDTH 500 0
DWIDTH 25 0
BBX 25 46 0 -11
BITMAP
07010000
0E0FC000
1C1FC000
1C3F8000
0EFF0000
07FC0000
01800000
03000000
03000000
06000000
06000000
06000000
0601E000
030FF000
01BFF000
00FFF000
019F8000
03000000
06000000
0C000000
18000000
18000000
30000000
30000000
30000000
30000000
38000000
38000000
3E00C000
3FFFF800
1FFFFC00
1FFFFE00
0FFFFE00
07FFFF00
03FFFF00
00FC0700
00000300
00000300
00000300
00000300
00000600
0007DE00
000FFC00
000FFC00
0007F000
0003E000
ENDCHAR

STARTCHAR afii9842
ENCODING 239
SWIDTH 500 0
DWIDTH 25 0
BBX 26 25 -1 -1
BITMAP
003F0000
00FFC000
03E1F000
07C0F800
0FC0FC00
0FC0FE00
1F807E00
1F807E00
3F807F00
3F807F00
3F807F00
3F807F00
3F807F00
3F807F00
3F807F00
3F807F00
3F807F00
1F807E00
1FC07E00
0FC0FC00
0FC0FC00
07C0F800
03E1F000
00FFC000
003F0000
ENDCHAR

STARTCHAR afii9843
ENCODING 240
SWIDTH 552 0
DWIDTH 28 0
BBX 28 24 -1 -1
BITMAP
01FFFFC0
07FFFFC0
0FFFFFC0
0FFFFFC0
1FFFFFC0
18F07800
30F07800
20F07800
00F07800
00F0F000
00F0F000
00F0F000
01E0F000
01E0F000
01E0F000
01E0F040
03E0F040
03E0F040
07E0F0C0
07C0F980
0FC07F80
0FC07F80
0F803F00
07001E00
ENDCHAR

STARTCHAR afii9845
ENCODING 241
SWIDTH 500 0
DWIDTH 25 0
BBX 24 35 2 -11
BITMAP
007E00
01FF80
07C7C0
0783E0
0F83F0
1F83F8
1F81F8
1F81F8
3F81FC
3F81FC
3F81FC
3F81FC
3F81FC
3F81FC
3F81FC
3F81FC
3F81FC
3F81F8
3F81F8
3F83F8
3F83F0
3FC7E0
3FFFE0
3FBF80
3F8F00
3F8000
3F8000
3F8000
3F8000
3F8000
3F8000
3F0000
3F0000
3F0000
7F0000
ENDCHAR

STARTCHAR afii9847
ENCODING 242
SWIDTH 438 0
DWIDTH 22 0
BBX 22 35 -1 -11
BITMAP
000FC0
007FF0
00FFF0
01FFF0
03C3F0
0700F0
0E0000
0C0000
180000
180000
100000
300000
300000
300000
300000
380000
380000
3E0700
3FFFC0
1FFFE0
1FFFF0
0FFFF0
07FFF8
03FFF8
00F838
000018
000018
000018
000018
000030
003E70
003FE0
003FE0
003F80
001E00
ENDCHAR

STARTCHAR afii9846
ENCODING 243
SWIDTH 552 0
DWIDTH 28 0
BBX 28 24 1 -1
BITMAP
003FFFC0
01FFFFC0
07FFFFC0
0FFFFFC0
1FFFFFC0
1FF38000
3FC1E000
3F81F000
7F01F800
7F00FC00
7F00FC00
7F00FE00
7F00FE00
7F00FE00
3F00FE00
3F00FE00
3F80FE00
1F80FC00
1F80FC00
0FC1F800
07C1F800
03E3E000
01FFC000
003E0000
ENDCHAR

STARTCHAR afii9848
ENCODING 244
SWIDTH 438 0
DWIDTH 22 0
BBX 21 24 0 -1
BITMAP
03FFF0
07FFF0
0FFFF0
1FFFF0
1FFFF0
387800
207800
207800
00F000
00F000
00F000
00F000
00F000
00F000
00F000
00F020
00F000
00F040
00F840
00FCC0
007FC0
007F80
003F00
001E00
ENDCHAR

STARTCHAR afii9849
ENCODING 245
SWIDTH 500 0
DWIDTH 25 0
BBX 25 25 0 -1
BITMAP
08000000
3F01C000
7F80E000
7FC07000
3FC03800
3FC03C00
1FC03C00
1FC01E00
1FC01E00
0FC01E00
0FC01E00
0FC01E00
0FC01E00
0FC01E00
0FC01E00
0FC01E00
0FC01E00
0FC01C00
0FC03C00
0FE03800
0FE03800
07E07000
03F0E000
01FFC000
003E0000
ENDCHAR

STARTCHAR afii9850
ENCODING 246
SWIDTH 604 0
DWIDTH 30 0
BBX 30 34 0 -10
BITMAP
00707C00
01E1FF00
03C3FF80
0F83CFC0
0F8787E0
1F8787E0
3F0783F0
3F0783F0
3F0783F8
7F0783F8
7F0783F8
7F0783F8
7F0783F8
7F0783F8
7F0783F8
3F0783F0
3F0783F0
3F8783F0
1F8787E0
0F8787C0
0FC78FC0
07C78F80
01F7BE00
007FF800
00078000
00078000
00078000
00078000
00078000
00078000
00078000
00078000
00078000
00078000
ENDCHAR

STARTCHAR afii9851
ENCODING 247
SWIDTH 552 0
DWIDTH 28 0
BBX 26 34 1 -11
BITMAP
0F007E00
1F807E00
3FC0FC00
3FC0FC00
31C1FC00
6061F800
4063F800
4023F000
0037F000
0037E000
003FE000
001FC000
001FC000
001F8000
003F8000
003F0000
003F0000
007E0000
007E0000
00FE0000
00FE0000
01FE0000
01FB0000
03FB0000
03F30000
07F10080
07E18080
0FE18180
0FC1C300
1FC0FF00
1F80FF00
3F807F00
3F007E00
00001C00
ENDCHAR

STARTCHAR afii9852
ENCODING 248
SWIDTH 719 0
DWIDTH 36 0
BBX 36 35 0 -11
BITMAP
1C00000180
7F00F00FE0
1F80F01F80
1FC0F03F80
0FC0F03F80
0FC0F03F00
0FE0F03F00
0FE0F07F00
0FE0F07F00
0FE0F07F00
0FE0F07F00
0FE0F07F00
07E0F07F00
07F0F07E00
07F0F07E00
07F0F0FE00
07F0F0FE00
03F0F0FC00
03F0F0FC00
01F8F1F800
00F8F1F000
007CF1E000
003CF3C000
001FFF8000
0003FC0000
0000F00000
0000F00000
0000F00000
0000F00000
0000F00000
0000F00000
0000F00000
0000F00000
0000F00000
0000F00000
ENDCHAR

STARTCHAR afii9853
ENCODING 249
SWIDTH 719 0
DWIDTH 36 0
BBX 37 24 0 -1
BITMAP
007E03F000
01F000FC00
03E0003E00
07C0603F00
0FC0F01F80
1FC1F81FC0
1F81F81FC0
1F81F80FC0
3F81F80FE0
3F81F80FE0
3F81F80FE0
3F81F80FE0
3F80F80FE0
3F80F00FE0
3F80F00FE0
3F80600FE0
1F80600FC0
1F80601FC0
1FC0F01FC0
0FC0F83F80
07E39C3F00
03FF0FFE00
01FE03FC00
007801F000
ENDCHAR

STARTCHAR afii9975
ENCODING 250
SWIDTH 333 0
DWIDTH 17 0
BBX 19 34 -2 -1
BITMAP
3E1F00
3E1F00
7F3F80
7F3F80
3E1F00
1C0E00
000000
000000
000000
000000
1FF800
07F800
03F800
03F800
03F800
03F800
03F800
03F800
03F800
03F800
03F800
03F800
03F800
03F800
03F800
03F800
03F840
03F8C0
03F880
03FC80
03FF80
01FF00
00FE00
007C00
ENDCHAR

STARTCHAR afii9976
ENCODING 251
SWIDTH 500 0
DWIDTH 25 0
BBX 25 34 0 -1
BITMAP
07C1E000
07C3E000
0FE7F000
0FE7F000
07C3E000
0381C000
00000000
00000000
00000000
08000000
3F01C000
7F80E000
7FC07000
3FC03800
3FC03C00
1FC03C00
1FE01E00
0FE01E00
0FE01E00
0FE01E00
0FE01E00
0FE01E00
0FE01E00
0FE01E00
0FE01E00
0FE01E00
0FE01C00
0FE03C00
0FE03800
0FE03800
07E07000
03F0E000
01FFC000
003E0000
ENDCHAR

STARTCHAR afii9972
ENCODING 252
SWIDTH 500 0
DWIDTH 25 0
BBX 26 36 -1 -1
BITMAP
001FC000
001F8000
003F0000
003E0000
003C0000
00380000
00700000
00600000
00000000
00000000
00000000
003F0000
00FFC000
03E1F000
07C0F800
0FC0FC00
0FC0FC00
1F807E00
1F807E00
3F807F00
3F807F00
3F807F00
3F807F00
3F807F00
3F807F00
3F807F00
3F807F00
3F807F00
1F807E00
1FC07E00
0FC0FC00
0FC0FC00
07C0F800
03E1F000
00FFC000
001F0000
ENDCHAR

STARTCHAR afii9973
ENCODING 253
SWIDTH 500 0
DWIDTH 25 0
BBX 25 35 0 -1
BITMAP
000FE000
000FC000
001F8000
001F0000
001E0000
003C0000
00380000
00300000
00000000
00000000
08000000
3F01C000
7F80E000
7FC07000
3FC03800
3FC03C00
1FC03C00
1FC01E00
1FC01E00
0FC01E00
0FC01E00
0FC01E00
0FC01E00
0FC01E00
0FC01E00
0FC01E00
0FC01E00
0FC01C00
0FC03C00
0FE03800
0FE03800
07E07000
03F0E000
01FFC000
003E0000
ENDCHAR

STARTCHAR afii9974
ENCODING 254
SWIDTH 719 0
DWIDTH 36 0
BBX 37 36 0 -1
BITMAP
0000FE0000
0000FC0000
0000F80000
0001F00000
0001E00000
0001C00000
0003800000
0003000000
0000000000
0000000000
0000000000
0000000000
007E03F000
01F000FC00
03E0003E00
07C0603F00
0FC0F01F80
1FC1F81FC0
1F81F81FC0
1F81F80FC0
3F81F80FE0
3F81F80FE0
3F81F80FE0
3F81F80FE0
3F80F80FE0
3F80F00FE0
3F80F00FE0
3F80600FE0
1F80600FC0
1F80601FC0
1FC0F01FC0
0FC0F83F80
07E39C3F00
03FF0FFE00
01FE03FC00
007801F000
ENDCHAR
ENDFONT
